<?xml version="1.0" standalone="no"?>
<!DOCTYPE svg PUBLIC "-//W3C//DTD SVG 1.1//EN" "http://www.w3.org/Graphics/SVG/1.1/DTD/svg11.dtd" >
<svg xmlns="http://www.w3.org/2000/svg">
<metadata>Generated by IcoMoon</metadata>
<defs>
<font id="kittn" horiz-adv-x="512">
<font-face units-per-em="512" ascent="480" descent="-32" />
<missing-glyph horiz-adv-x="512" />
<glyph unicode="&#x20;" d="" horiz-adv-x="256" />
<glyph unicode="&#xe602;" d="M424.212 235.142l-152.646 152.64c-8.788 8.793-23.043 8.793-31.843 0l-31.695-31.7 40.206-40.209c9.346 3.156 20.062 1.038 27.509-6.409 7.49-7.493 9.589-18.301 6.354-27.679l38.753-38.75c9.377 3.232 20.192 1.143 27.681-6.357 10.464-10.462 10.464-27.419 0-37.886-10.471-10.469-27.425-10.469-37.899 0-7.87 7.877-9.819 19.441-5.827 29.137l-36.145 36.142v-95.106c2.549-1.264 4.955-2.947 7.082-5.067 10.464-10.461 10.464-27.416 0-37.892-10.464-10.461-27.43-10.461-37.886 0-10.463 10.477-10.463 27.432 0 37.892 2.587 2.584 5.58 4.539 8.777 5.848v95.986c-3.197 1.309-6.184 3.246-8.777 5.847-7.925 7.922-9.831 19.554-5.768 29.287l-39.637 39.644-104.668-104.66c-8.79-8.8-8.79-23.057 0-31.85l152.654-152.638c8.786-8.789 23.041-8.789 31.842 0l151.932 151.932c8.796 8.793 8.796 23.058 0 31.849z" />
<glyph unicode="&#xe609;" d="M256 394.505c-99.129 0-179.502-80.373-179.502-179.5 0-79.32 51.428-146.59 122.762-170.321 8.972-1.642 12.249 3.901 12.249 8.635 0 4.272-0.165 18.428-0.252 33.415-49.916-10.846-60.466 21.168-60.466 21.168-8.172 20.728-19.929 26.249-19.929 26.249-16.313 11.131 1.237 10.912 1.237 10.912 18.022-1.249 27.512-18.493 27.512-18.493 16.018-27.435 42.026-19.502 52.237-14.9 1.631 11.569 6.277 19.502 11.394 23.972-39.846 4.535-81.764 19.939-81.764 88.719 0 19.612 7.001 35.606 18.461 48.173-1.83 4.558-8.009 22.822 1.774 47.526 0 0 15.054 4.821 49.368-18.406 14.308 4 29.657 5.971 44.919 6.038 15.25-0.066 30.609-2.060 44.941-6.059 34.248 23.249 49.322 18.406 49.322 18.406 9.816-24.727 3.639-42.968 1.799-47.504 11.504-12.567 18.449-28.562 18.449-48.173 0-68.956-41.984-84.14-81.973-88.587 6.465-5.566 12.182-16.479 12.182-33.219 0-23.994-0.238-43.341-0.238-49.257 0-4.778 3.264-10.365 12.357-8.613 71.279 23.776 122.662 91.044 122.662 170.321 0.001 99.125-80.372 179.498-179.501 179.498z" />
<glyph unicode="&#xe60e;" d="M148.859 174.11c0-14.329-9.982-26.052-22.182-26.052-12.201 0-22.186 11.724-22.186 26.052v85.267c0 14.33 9.983 26.054 22.186 26.054 12.2 0 22.182-11.724 22.182-26.054v-85.267zM407.506 174.11c0-14.329-9.983-26.052-22.184-26.052s-22.186 11.724-22.186 26.052v85.267c0 14.33 9.986 26.054 22.186 26.054s22.184-11.724 22.184-26.054v-85.267zM304.502 367.855l14.234 25.539c1.163 2.086 0.821 4.514-0.761 5.396s-3.828-0.106-4.99-2.192l-14.564-26.132c-12.984 5.108-27.54 7.974-42.914 7.974-15.488 0-30.147-2.907-43.208-8.090l-14.629 26.249c-1.161 2.086-3.406 3.072-4.987 2.191-1.583-0.88-1.924-3.309-0.762-5.396l14.304-25.668c-29.761-13.976-49.808-40.224-49.808-70.298 0-3.056 0.215-6.070 0.617-9.038h196.944c0.402 2.967 0.618 5.981 0.618 9.038 0 30.17-20.175 56.485-50.094 70.427zM210.54 323.274c-4.786 0-8.666 3.88-8.666 8.666 0 4.785 3.88 8.667 8.666 8.667s8.666-3.881 8.666-8.667c0.001-4.786-3.881-8.666-8.666-8.666zM300.967 323.274c-4.786 0-8.667 3.88-8.667 8.666 0 4.785 3.88 8.667 8.667 8.667s8.666-3.881 8.666-8.667c0-4.786-3.88-8.666-8.666-8.666zM156.42 279.775v-145.262h0.083c1.018-12.269 12.305-22.020 25.97-22.020h146.067c13.664 0 24.949 9.75 25.971 22.020h0.084v145.262h-198.175zM241.319 113.227v-44.941c0-14.329-9.983-26.054-22.184-26.054s-22.183 11.724-22.183 26.054v44.895zM315.267 113.25v-44.964c0-14.329-9.985-26.054-22.185-26.054s-22.185 11.724-22.185 26.054v44.964z" />
<glyph unicode="&#xe60f;" d="M223.284 227.587h-135.712v116.324l135.712 19.386zM424.428 227.587h-182.969v138.113l182.969 26.68zM223.284 211.834h-135.712v-116.324l135.712-19.388zM424.428 211.834h-182.969v-138.112l182.969-26.681z" />
<glyph unicode="&#xe611;" d="M351.874 209.077c-0.445 44.491 36.278 65.829 37.916 66.902-20.635 30.178-52.785 34.32-64.231 34.786-27.334 2.782-53.373-16.105-67.243-16.105-13.839 0-35.267 15.699-57.938 15.303-29.829-0.445-57.316-17.351-72.668-44.049-30.972-53.728-7.919-133.358 22.259-176.97 14.759-21.312 32.353-45.298 55.435-44.42 22.25 0.879 30.644 14.396 57.546 14.396 26.894 0 34.452-14.396 57.986-13.942 23.925 0.43 39.094 21.721 53.735 43.123 16.933 24.762 23.909 48.736 24.322 49.957-0.517 0.236-46.637 17.907-47.118 71.020zM307.649 339.625c12.243 14.861 20.538 35.518 18.286 56.076-17.672-0.719-39.058-11.747-51.74-26.595-11.361-13.175-21.303-34.151-18.641-54.34 19.708-1.526 39.812 10.024 52.095 24.859z" />
<glyph unicode="&#xe612;" d="M250.74 309.632c0-1.149-1.149-1.149-1.149-1.149h-1.151c-1.149 0-1.149 1.149-2.302 2.301 0 0-1.149 1.151-1.149 2.302s0 1.15 1.149 1.15l2.302-1.15c1.151-1.15 2.302-2.302 2.302-3.454zM230.027 321.142c0 5.754-2.302 9.206-5.754 9.206 0 0 0-1.15-1.15-1.15v-2.302h3.453c0-2.302 1.15-3.452 1.15-5.754h2.302zM270.303 326.895c2.302 0 3.453-2.302 4.603-5.754h2.302c-1.151 1.151-1.151 2.302-1.151 3.452s0 2.302-1.151 3.453-2.302 2.302-3.453 2.302c0 0-1.151-1.151-2.302-1.151 0.001-1.15 1.151-1.15 1.151-2.302zM235.782 308.483c-1.151 0-1.151 0-1.151 1.149 0 1.151 0 2.302 1.151 3.453 2.302 0 3.452 1.15 3.452 1.15 1.151 0 1.151-1.15 1.151-1.15 0-1.151-1.151-2.302-3.453-4.603h-1.149zM223.122 309.632c-4.603 2.302-5.754 5.755-5.754 11.509 0 3.452 0 5.754 2.302 8.055 1.15 2.301 3.452 3.452 5.754 3.452s3.452-1.151 5.754-3.452c1.15-3.453 2.302-6.905 2.302-10.358v-2.302h1.15v1.15c1.151 0 1.151 2.302 1.151 6.905 0 3.453 0 6.905-2.302 10.358s-4.603 5.755-9.206 5.755c-3.452 0-6.905-2.302-8.054-5.755-2.302-4.603-2.762-8.055-2.762-13.808 0-4.603 1.612-9.206 6.214-13.809 1.149 1.151 2.301 1.151 3.452 2.302zM366.969 147.374c1.151 0 1.151 0.459 1.151 1.495 0 2.532-1.151 5.524-4.602 8.861-3.453 3.452-9.207 5.637-16.111 6.56-1.151 0.115-2.302 0.115-2.302 0.115-1.151 0.231-1.151 0.231-2.302 0.231-1.151 0.115-3.453 0.344-4.603 0.575 3.453 10.703 4.603 20.139 4.603 28.425 0 11.509-2.302 19.563-6.905 26.469-4.603 6.904-9.207 10.357-14.961 11.507-1.151-1.15-1.151-1.15-1.151-2.302 5.753-2.302 11.507-6.904 14.962-13.809 3.452-8.055 4.602-14.961 4.602-23.016 0-6.446-1.151-15.995-5.754-28.193-4.603-1.839-9.207-6.099-12.658-12.773 0-1.036 0-1.611 1.149-1.611 0 0 1.151 1.036 2.302 2.993 2.302 1.955 3.453 3.913 5.754 5.869 3.453 1.957 5.754 2.993 9.207 2.993 5.754 0 11.509-0.807 14.961-2.417 4.603-1.495 6.905-3.106 8.055-4.949 1.151-1.726 2.302-3.337 3.453-4.834 0-1.495 1.149-2.185 1.149-2.185zM261.098 314.236c-1.151 1.151-1.151 3.452-1.151 5.754 0 4.603 0 6.905 2.302 10.357 2.301 2.302 4.602 3.452 6.904 3.452 3.453 0 5.754-2.302 8.055-4.603 1.149-3.453 2.301-5.754 2.301-9.206 0-5.754-2.301-9.206-6.904-10.358 0 0 1.151-1.149 2.302-1.149 2.302 0 3.452-1.151 5.754-2.302 1.149 6.905 2.302 11.507 2.302 17.261 0 6.905-1.151 11.508-3.453 14.961-3.452 3.453-6.904 4.603-11.507 4.603-3.453 0-6.904-1.151-10.357-3.453-2.302-3.453-3.453-5.755-3.453-9.207 0-5.754 1.149-10.357 3.453-14.96 1.149 0 2.301-1.151 3.452-1.151zM274.906 295.824c-14.961-10.358-26.469-14.96-35.674-14.96-8.054 0-16.111 3.453-23.016 9.206 1.15-2.302 2.302-4.603 3.453-5.754l6.905-6.905c4.603-4.603 10.357-6.905 16.112-6.905 8.054 0 17.261 4.603 28.768 12.658l10.357 6.905c2.302 2.303 4.603 4.604 4.603 8.055 0 1.151 0 2.302-1.149 2.302-1.151 2.302-6.906 5.755-18.413 9.206-10.357 4.603-18.412 6.905-23.017 6.905-3.452 0-9.206-2.301-17.261-6.905-6.905-4.603-11.508-9.206-11.508-13.808 0 0 1.15-1.149 2.302-3.452 6.905-5.755 13.809-9.207 20.715-9.207 9.206 0 20.714 4.603 35.673 16.112v-2.302c1.149 0.001 1.149-1.15 1.149-1.15zM301.376 63.366c4.603-8.654 12.658-13.003 21.863-13.003 2.302 0 4.603 0.344 6.905 1.036 2.302 0.459 4.604 1.267 5.754 2.187 1.151 0.807 2.302 1.611 3.453 2.533 2.302 0.805 2.302 1.381 3.453 1.955l19.563 16.917c4.602 3.671 9.206 6.882 14.961 9.666 4.603 2.762 9.207 4.603 11.509 5.638 3.453 0.921 5.754 2.302 8.055 4.144 1.151 1.726 2.302 3.913 2.302 6.674 0 3.337-2.302 5.868-4.603 7.711-2.302 1.84-4.603 3.106-6.905 3.913s-4.603 2.647-8.055 5.753c-2.303 2.993-4.604 7.135-5.755 12.545l-1.151 6.673c-1.151 3.106-1.151 5.409-2.302 6.675 0 0.344 0 0.459-1.151 0.459s-3.452-1.036-4.602-2.993c-2.302-1.955-4.603-4.142-6.905-6.445-1.151-2.301-4.603-4.373-6.904-6.329-3.453-1.957-6.905-2.993-9.207-2.993-9.207 0-13.809 2.533-17.262 7.479-2.302 3.683-3.452 7.941-4.602 12.774-2.302 1.955-3.453 2.991-5.754 2.991-5.754 0-8.055-5.984-8.055-18.067v-35.79c0-1.036-1.151-3.337-1.151-6.905-1.151-3.568-1.151-7.618-1.151-12.198l-2.302-12.774v-0.195zM134.512 69.488c10.702-1.564 23.016-4.913 36.941-10.022 13.924-5.063 22.44-7.712 25.547-7.712 8.055 0 14.731 3.568 20.254 10.461 1.15 2.233 1.15 4.858 1.15 7.872 0 10.874-6.56 24.627-19.678 41.313l-7.825 10.472c-1.611 2.187-3.568 5.524-6.1 10.012-2.417 4.488-4.603 7.94-6.329 10.357-1.495 2.647-3.912 5.293-7.019 7.941-2.993 2.646-6.445 4.373-10.242 5.293-4.834-0.921-8.17-2.533-9.782-4.719-1.612-2.187-2.532-4.603-2.762-7.135-0.345-2.417-1.036-4.028-2.187-4.834-1.149-0.69-3.107-1.265-5.754-1.841-0.575 0-1.611 0-3.107-0.115h-3.107c-6.1 0-10.243-0.69-12.428-1.84-2.877-3.337-4.373-7.135-4.373-11.164 0-1.84 0.459-4.948 1.381-9.321 0.921-4.257 1.381-7.711 1.381-10.127 0-4.719-1.381-9.437-4.258-14.154-2.876-4.949-4.373-8.631-4.373-11.255 1.15-4.464 8.746-7.606 22.67-9.448zM172.834 174.129c0 7.941 2.071 16.687 6.329 27.043 4.143 10.358 8.285 17.262 12.314 21.865-0.231 1.149-0.805 1.149-1.726 1.149l-1.15 1.151c-3.338-3.453-7.365-11.509-12.198-23.017-4.833-10.357-7.365-19.908-7.365-26.928 0-5.178 1.266-9.666 3.568-13.579 2.532-3.798 8.631-9.322 18.297-16.341l12.198-7.94c13.003-11.279 19.909-19.103 19.909-23.706 0-2.417-1.15-4.834-4.603-7.479-2.303-2.762-5.409-4.142-8.055-4.142-0.23 0-0.345-0.23-0.345-0.807 0-0.115 1.15-2.417 3.568-6.904 4.834-6.56 15.19-9.782 29-9.782 25.317 0 44.88 10.358 59.841 31.072 0 5.754 0 9.322-1.151 10.817v4.257c0 7.479 1.151 13.118 3.453 16.801s4.602 5.409 8.055 5.409c2.302 0 4.603-0.807 6.905-2.532 1.151 8.86 1.151 16.572 1.151 23.476 0 10.473 0 19.103-2.302 27.158-1.151 6.905-3.453 12.659-5.754 17.262-2.302 3.452-4.603 6.905-6.904 10.357-2.302 3.453-3.453 6.905-5.754 10.358-1.151 4.603-2.302 8.054-2.302 13.809-3.453 5.755-5.753 11.507-9.207 17.262-2.302 5.753-4.603 11.507-6.905 16.111l-10.358-8.056c-11.509-8.053-20.715-11.507-28.768-11.507-6.905 0-12.66 1.151-16.112 5.755l-6.905 5.753c0-3.452-1.15-8.053-3.453-12.657l-7.25-13.809c-3.221-8.054-4.948-12.658-5.293-16.111-0.459-2.302-0.805-4.604-1.036-4.604l-8.631-17.261c-9.322-17.262-14.041-33.258-14.041-46.492 0-2.647 0.23-5.409 0.69-8.171-5.178 3.568-7.71 8.517-7.71 14.962zM255.228 65.267c-14.959 0-26.468-2.026-34.523-6.042v0.346c-5.755-6.904-12.198-10.473-21.174-10.473-5.639 0-14.5 2.187-26.468 6.56-12.083 4.142-22.786 7.32-32.107 9.413-0.922 0.264-2.993 0.656-6.329 1.185-3.221 0.518-6.214 1.047-8.861 1.577-2.416 0.519-5.178 1.301-8.17 2.361-2.876 0.909-5.178 2.095-6.905 3.532-1.588 1.45-2.371 3.084-2.371 4.914 0 1.84 0.39 3.808 1.174 5.904 0.737 1.265 1.543 2.532 2.348 3.683 0.805 1.264 1.496 2.416 1.956 3.567 0.691 1.036 1.15 2.072 1.612 3.221 0.459 1.036 0.921 2.072 1.15 3.338 0.23 1.151 0.459 2.302 0.459 3.453s-0.459 4.603-1.381 10.702c-0.921 5.983-1.381 9.782-1.381 11.392 0 5.065 1.15 9.091 3.683 11.969s4.948 4.373 7.48 4.373h13.233c1.036 0 2.647 0.575 5.064 1.957 0.806 1.84 1.495 3.337 1.957 4.719 0.575 1.38 0.804 2.416 1.036 2.875 0.23 0.69 0.459 1.382 0.69 1.957 0.459 0.805 1.036 1.726 1.841 2.647-0.922 1.151-1.381 2.647-1.381 4.488 0 1.267 0 2.417 0.23 3.108 0 4.142 1.957 10.012 6.099 17.722l4.028 7.25c3.338 6.214 5.869 10.817 7.71 15.419 1.957 4.603 4.027 11.509 6.329 20.714 1.841 8.054 6.214 16.111 13.119 24.167l8.631 10.357c5.984 6.905 9.898 12.66 12.083 17.262s3.338 10.357 3.338 14.961c0 2.302-0.576 9.206-1.841 20.715-1.15 11.508-1.726 23.016-1.726 33.372 0 8.055 0.69 13.809 2.186 19.564s4.143 11.509 8.054 16.111c3.453 4.603 8.055 9.206 14.961 11.507s14.96 3.453 24.166 3.453c3.453 0 6.905 0 10.358-1.15 3.453 0 8.055-1.151 13.808-3.453 4.603-2.302 9.207-4.603 12.66-8.055 4.602-3.453 8.055-9.206 11.507-14.961 2.302-6.905 4.602-13.808 5.753-23.017 1.151-5.754 1.151-11.508 2.302-19.563 0-6.905 1.151-11.507 1.151-14.961 1.151-3.452 1.151-8.054 2.302-13.808 1.151-4.603 2.302-9.206 4.603-12.658 2.302-4.603 4.602-9.207 8.055-13.809 3.453-5.754 8.055-11.509 12.658-18.411 10.358-11.507 18.413-24.167 23.017-36.825 5.753-11.509 9.206-26.467 9.206-42.464 0-7.941-1.151-15.65-3.453-23.132 2.302 0 3.453-0.921 4.603-2.532s2.302-5.063 3.453-10.473l1.151-8.515c1.151-2.532 2.302-4.949 5.754-7.019 2.302-2.070 4.603-3.798 8.055-5.178 2.302-1.151 5.753-2.762 8.055-4.834 2.302-2.302 3.453-4.719 3.453-7.25 0-3.913-1.151-6.79-3.453-8.861-2.302-2.302-4.602-3.913-8.055-4.949-2.302-1.149-6.906-3.452-13.809-6.697-5.754-3.406-11.509-7.538-17.262-12.428l-11.507-9.793c-4.603-4.488-9.208-7.712-12.66-9.666-3.452-2.072-8.055-3.108-12.658-3.108l-8.055 0.921c-9.206 2.417-14.961 7.019-18.412 14.040-18.413 2.232-33.373 3.337-42.579 3.337z" />
<glyph unicode="&#xe618;" d="M255.964 42.288c-4.751 0-9.489 1.245-13.661 3.656l-43.492 25.731c-6.485 3.625-3.306 4.911-1.172 5.661 8.66 3.009 10.413 3.699 19.648 8.943 0.97 0.539 2.247 0.338 3.249-0.249l33.393-19.822c1.22-0.679 2.919-0.679 4.038 0l130.226 75.157c1.215 0.694 1.983 2.095 1.983 3.519v150.296c0 1.473-0.776 2.85-2.014 3.592l-130.17 75.095c-1.209 0.699-2.81 0.699-4.018 0l-130.132-75.122c-1.261-0.715-2.060-2.146-2.060-3.565v-150.297c0-1.431 0.793-2.793 2.044-3.481l35.676-20.606c19.356-9.68 31.209 1.716 31.209 13.171v148.389c0 2.097 1.691 3.751 3.785 3.751h16.517c2.060 0 3.766-1.653 3.766-3.751v-148.389c0-25.831-14.069-40.652-38.56-40.652-7.524 0-13.453 0-30.002 8.156l-34.144 19.659c-8.431 4.88-13.656 13.994-13.656 23.753v150.296c0 9.76 5.225 18.874 13.656 23.733l130.233 75.254c8.245 4.66 19.192 4.66 27.368 0l130.219-75.254c8.434-4.88 13.68-13.972 13.68-23.733v-150.296c0-9.759-5.247-18.842-13.68-23.753l-130.219-75.185c-4.165-2.411-8.89-3.656-13.715-3.656zM296.2 145.826c-57.004 0-68.93 26.166-68.93 48.108 0 2.082 1.669 3.746 3.751 3.746h16.845c1.876 0 3.45-1.358 3.735-3.19 2.538-17.142 10.111-25.795 44.589-25.795 27.428 0 39.1 6.216 39.1 20.761 0 8.394-3.301 14.614-45.945 18.8-35.62 3.519-57.674 11.397-57.674 39.9 0 26.282 22.157 41.945 59.29 41.945 41.721 0 62.357-14.477 64.983-45.553 0.096-1.055-0.281-2.089-1.005-2.888-0.712-0.758-1.704-1.208-2.755-1.208h-16.906c-1.743 0-3.289 1.239-3.644 2.946-4.065 18.036-13.92 23.798-40.675 23.798-29.954 0-33.437-10.435-33.437-18.244 0-9.483 4.118-12.239 44.548-17.593 40.027-5.287 59.040-12.774 59.040-40.901 0.007-28.373-23.649-44.632-64.911-44.632z" />
<glyph unicode="&#xe619;" d="M118.971 216.786c0 1.221-0.642 2.343-1.695 2.947l-28.076 16.159c-0.473 0.28-1.007 0.426-1.544 0.447-0.049 0-0.251 0-0.29 0-0.537-0.022-1.070-0.167-1.551-0.447l-28.075-16.159c-1.048-0.604-1.698-1.725-1.698-2.947l0.062-43.51c0-0.603 0.316-1.168 0.846-1.464 0.523-0.313 1.167-0.313 1.685 0l16.686 9.553c1.055 0.627 1.698 1.734 1.698 2.944v20.328c0 1.209 0.642 2.332 1.693 2.936l7.106 4.093c0.529 0.303 1.108 0.453 1.7 0.453 0.578 0 1.171-0.149 1.686-0.453l7.105-4.093c1.050-0.604 1.695-1.725 1.695-2.936v-20.328c0-1.211 0.651-2.322 1.7-2.944l16.681-9.553c0.525-0.313 1.177-0.313 1.697 0 0.517 0.298 0.842 0.861 0.842 1.464l0.051 43.51zM268.892 276.599c-0.526 0.292-1.167 0.286-1.685-0.020-0.517-0.303-0.837-0.861-0.837-1.463v-43.088c0-0.421-0.226-0.815-0.591-1.029-0.371-0.212-0.822-0.212-1.188 0l-7.031 4.053c-1.052 0.605-2.34 0.602-3.391-0.001l-28.085-16.21c-1.051-0.606-1.698-1.726-1.698-2.935v-32.432c0-1.21 0.647-2.327 1.696-2.938l28.088-16.22c1.050-0.606 2.343-0.606 3.39 0l28.093 16.22c1.050 0.61 1.695 1.726 1.695 2.938v80.834c0 1.229-0.664 2.363-1.74 2.963l-16.714 9.327zM266.286 194.134c0-0.302-0.159-0.584-0.422-0.735l-9.647-5.559c-0.258-0.152-0.585-0.152-0.845 0l-9.643 5.559c-0.265 0.151-0.426 0.432-0.426 0.735v11.134c0 0.303 0.161 0.584 0.426 0.735l9.642 5.572c0.262 0.151 0.587 0.151 0.85 0l9.644-5.572c0.262-0.151 0.422-0.43 0.422-0.735v-11.134zM369.381 205.562c1.044 0.603 1.685 1.724 1.685 2.93v7.858c0 1.21-0.643 2.325-1.687 2.935l-27.908 16.202c-1.050 0.61-2.348 0.612-3.399 0.006l-28.079-16.21c-1.048-0.608-1.694-1.726-1.694-2.938v-32.418c0-1.218 0.652-2.346 1.712-2.95l27.904-15.899c1.031-0.584 2.288-0.593 3.327-0.019l16.878 9.382c0.531 0.298 0.865 0.86 0.869 1.469 0.004 0.613-0.32 1.178-0.851 1.483l-28.256 16.22c-0.527 0.3-0.851 0.865-0.851 1.469v10.161c0 0.604 0.324 1.165 0.848 1.469l8.796 5.067c0.522 0.301 1.168 0.301 1.69 0l8.8-5.067c0.524-0.304 0.848-0.865 0.848-1.469v-7.997c0-0.606 0.322-1.165 0.851-1.468 0.526-0.303 1.173-0.3 1.698 0.006l16.815 9.776zM170.044 235.662c1.049 0.606 2.342 0.606 3.391 0l28.087-16.208c1.047-0.606 1.696-1.723 1.696-2.937v-32.44c0-1.211-0.648-2.329-1.696-2.938l-28.087-16.22c-1.050-0.603-2.343-0.603-3.391 0l-28.078 16.22c-1.049 0.608-1.696 1.727-1.696 2.938v32.44c0 1.214 0.647 2.332 1.697 2.937l28.077 16.208zM423.909 164.459c-0.967 0-1.931 0.252-2.779 0.743l-8.844 5.233c-1.317 0.736-0.673 0.999-0.238 1.151 1.761 0.613 2.118 0.752 3.995 1.818 0.197 0.111 0.457 0.070 0.659-0.050l6.791-4.031c0.249-0.138 0.594-0.138 0.821 0l26.483 15.283c0.246 0.141 0.402 0.426 0.402 0.716v30.563c0 0.3-0.156 0.58-0.411 0.731l-26.471 15.27c-0.246 0.143-0.571 0.143-0.817 0l-26.464-15.277c-0.256-0.146-0.418-0.437-0.418-0.726v-30.563c0-0.291 0.163-0.567 0.416-0.707l7.255-4.19c3.937-1.969 6.347 0.349 6.347 2.678v30.173c0 0.428 0.344 0.762 0.769 0.762h3.359c0.418 0 0.767-0.336 0.767-0.762v-30.175c0-5.253-2.86-8.267-7.842-8.267-1.529 0-2.737 0-6.101 1.658l-6.944 3.998c-1.714 0.991-2.778 2.846-2.778 4.829v30.563c0 1.986 1.063 3.839 2.778 4.826l26.483 15.303c1.676 0.947 3.904 0.947 5.565 0l26.48-15.303c1.716-0.991 2.783-2.841 2.783-4.826v-30.563c0-1.986-1.067-3.83-2.783-4.829l-26.48-15.291c-0.846-0.49-1.805-0.743-2.786-0.743zM432.090 185.514c-11.591 0-14.017 5.322-14.017 9.783 0 0.424 0.339 0.762 0.763 0.762h3.425c0.382 0 0.702-0.277 0.76-0.648 0.517-3.486 2.057-5.247 9.067-5.247 5.577 0 7.951 1.263 7.951 4.222 0 1.707-0.671 2.972-9.344 3.822-7.245 0.716-11.728 2.318-11.728 8.115 0 5.345 4.503 8.529 12.056 8.529 8.485 0 12.68-2.943 13.214-9.262 0.021-0.214-0.056-0.425-0.204-0.587-0.146-0.154-0.346-0.246-0.562-0.246h-3.438c-0.353 0-0.668 0.252-0.741 0.599-0.826 3.668-2.829 4.84-8.269 4.84-6.091 0-6.8-2.122-6.8-3.711 0-1.928 0.839-2.49 9.060-3.577 8.139-1.075 12.006-2.598 12.006-8.317 0-5.769-4.808-9.075-13.2-9.075zM339.359 207.079c0.202 0.115 0.447 0.115 0.652 0l5.389-3.108c0.2-0.116 0.327-0.333 0.327-0.565v-6.224c0-0.233-0.127-0.447-0.327-0.562l-5.389-3.113c-0.204-0.113-0.45-0.113-0.652 0l-5.385 3.113c-0.2 0.115-0.325 0.329-0.325 0.562v6.224c0 0.233 0.125 0.448 0.325 0.565l5.385 3.108z" />
<glyph unicode="&#xe61e;" d="M41.944 232.112v-71.638h119.252v-24.022h95.232v24.022h213.626v143.276h-428.111v-71.637zM161.197 232.112v-47.617h-24.021v71.21h-23.164v-71.21h-48.903v95.231h96.089v-47.615zM280.28 232.024l-0.257-47.616-46.759 0.171v-24.107h-48.902v119.252h96.089l-0.171-47.702zM446.89 232.112v-47.617h-24.024v71.21h-24.023v-71.639l-24.021 0.514v71.125h-23.164v-71.21h-48.045v95.231h143.277v-47.615zM233.263 232.112v-23.595h22.306v47.187h-22.306v-23.593z" />
<glyph unicode="&#xe636;" d="M96.263 401.406l29.074-326.59 130.468-36.274 130.827 36.325 29.105 326.54h-319.474zM156.669 323.901l-0.957 10.745h100.15v-40.055h-56.44l3.655-41.016h52.785v-40.055h-89.363l-9.829 110.38zM347.853 242.819l-9.399-105.452-0.601-6.767-82.037-22.777-81.926 22.777-5.603 62.892h40.149l2.847-31.945 44.579-12.033 44.607 12.057 4.642 51.949h-49.111v40.055h92.829l-0.976-10.757zM355.093 323.901l-1.822-20.306-0.803-9.004h-96.469v40.055h100.049l-0.956-10.744z" />
<glyph unicode="&#xe63e;" d="M396.718 322.615h-281.437c-13.077 0-23.716-10.639-23.716-23.716v-158.109c0-13.078 10.639-23.717 23.716-23.717h281.437c13.077 0 23.716 10.639 23.716 23.717v158.109c0 13.077-10.639 23.716-23.716 23.716zM276.554 158.223l-41.109-0.041v61.663l-30.832-39.529-30.831 39.529v-61.663h-41.109v123.326h41.109l30.831-41.108 30.832 41.108 41.109 0.039v-123.325zM337.925 147.945l-51.093 71.9h30.831v61.662h41.109v-61.662h30.831l-51.678-71.9z" />
<glyph unicode="&#xe643;" d="M321.193 219.572c0-36.005-29.188-65.193-65.193-65.193s-65.193 29.188-65.193 65.193c0 36.005 29.189 65.193 65.193 65.193s65.193-29.189 65.193-65.193zM255.609 297.252v0.005h157.543c-28.641 57.827-88.25 97.594-157.153 97.594-55.779 0-105.47-26.058-137.571-66.661l60.103-102.784c2.974 40.049 36.314 71.644 77.078 71.846zM256 141.889c-33.618 0-62.244 21.354-73.064 51.236l-72.54 124.055c-18.736-27.899-29.675-61.475-29.675-97.608 0-88.228 65.19-161.217 150.029-173.461l60.473 104.202c-10.574-5.387-22.542-8.425-35.223-8.425zM418.744 284.765h-120.486c21.321-13.85 35.425-37.873 35.425-65.193 0-13.433-3.411-26.073-9.413-37.096l0.046-0.026-79.95-137.761c3.846-0.253 7.724-0.394 11.633-0.394 96.804 0 175.279 78.475 175.279 175.279 0.001 23.040-4.454 45.040-12.534 65.192z" />
<glyph unicode="&#xe644;" d="M424.069 211.897c0 26.276-6.139 51.048-16.993 72.844 3.055 8.168 6.67 19.325 10.587 34.361 12.665 48.583-16.466 77.521-61.163 72.803-27.147-2.864-52.703-10.617-77.413-22.21-1.994 0.082-3.997 0.135-6.011 0.135-74.341 0-136.131-56.195-148.669-130.186 31.061 46.929 76.374 71.8 76.374 71.8-30.933-33.897-57.619-67.253-77.434-102.412-0.379-0.63-0.752-1.268-1.115-1.92-16.539-29.781-28.112-60.893-33.094-94.76-6.83-46.44 15.482-71.25 63.143-64.131 16.38 2.45 46.050 17.411 54.457 21.776 20.026-10.262 42.536-16.032 66.339-16.032 65.742 0 121.661 43.95 142.391 105.288h-81.724c-11.596-21.158-33.391-35.415-58.378-35.415-36.073 0-65.507 29.704-67.18 67.002h214.547c0.877 6.891 1.337 13.916 1.337 21.058zM153.196 59.708c-25.489-2.808-58.407 26.24-20.887 94.975 12.106-32.562 34.239-59.88 62.434-77.814-7.8-4.584-27.809-15.649-41.546-17.161zM208.681 237.74c4.268 34.556 32.484 61.259 66.684 61.259s62.416-26.703 66.683-61.259h-133.367zM329.623 358.37c63.666 31.219 86.798-2.125 79.804-36.12-0.964-4.682-4.464-17.137-7.561-27.886-16.808 28.656-42.109 51.266-72.243 64.005z" />
<glyph unicode="&#xe645;" d="M373.039 349.038c-0.962 0.95-1.937 1.888-2.921 2.815 0.971-0.937 1.945-1.875 2.921-2.815zM88.704 254.862c0 0-0.495-0.607-1.241-1.615-0.106-0.551-0.217-1.103-0.317-1.655 0.469 1.305 0.985 2.411 1.558 3.27zM137.989 334.45c0.319 0.325 0.631 0.655 0.952 0.976 14.853 14.853 32.148 26.513 51.404 34.657 19.931 8.43 41.107 12.705 62.941 12.705 20.608 0 40.632-3.814 59.577-11.331 11.064-1.913 25.813-5.592 38.103-12.579-27.577 19.584-61.284 31.098-97.68 31.098-47.188 0-89.85-19.36-120.493-50.561 1.425-1.734 3.143-3.405 5.197-4.966zM197.945 207.428c-1.175 0.979-2.181 2.026-3.038 3.118-0.287-2.412-0.48-5.007-0.478-7.733-0.001-5.077 0.635-10.558 2.369-15.99 1.737-5.435 4.559-10.827 9.006-15.831 2.966-3.336 6.664-6.505 11.289-9.385l-0.258-0.416c8.685-0.157 22.82 0.010 29.983 2.397 10.78 3.593 28.028 17.248 28.028 17.248 4.312 4.313 9.344 2.156 13.656 2.156 4.313 0 5.752 6.469 0 12.937-5.75 6.469-25.873 12.935-40.964 2.875-15.094-10.063-36.654-2.158-49.591 8.623zM208.363 302.276c-0.962-3.582-1.796-8.128-1.793-13.070 0.001-4.99 0.836-10.356 3.184-15.636 1.883-4.236 3.66-7.341 5.276-9.835 1.137-1.753 2.195-3.201 3.186-4.549 2.024 1.862 4.388 3.731 6.322 5.020 4.312 2.875 20.841 10.78 22.998 12.936s6.469 13.656 2.875 17.248c-3.593 3.594-26.591 1.438-33.779 2.875-3.028 0.604-5.926 2.74-8.268 5.011zM213.004 231.953c0.022-0.058 0.033-0.090 0.033-0.090 0.028 0.056 0.052 0.114 0.078 0.171l-0.112-0.081zM425.772 264.205c0-5.843-5.276-14.030-6.297-15.558 0.212 0.543 0.546 2.255 0.546 7.651 0 7.906 2.159 28.030-7.905 50.309s-25.154 33.060-25.154 33.060v-5.030c-2.156 7.186-22.279 20.841-22.279 20.841v-7.187c35.935-33.059 39.529-56.057 39.529-56.057-6.469 20.841-25.156 36.653-40.966 51.746-15.81 15.092-48.87 22.997-48.87 22.997 35.217-20.122 52.464-51.745 52.464-51.745-17.969 17.248-32.343 15.81-32.343 15.81 10.781-7.905 15.812-16.529 25.873-32.341 10.063-15.811 9.344-53.182 9.344-53.182-5.030 12.218-15.092 17.249-15.092 17.249s2.158-21.56 3.594-33.779c1.435-12.217-5.031-35.216-5.031-35.216 0 8.625-5.030 10.781-5.030 10.781s1.437-5.031-5.752-28.030c-7.187-22.998-20.841-30.904-22.997-30.185-2.158 0.719 0 4.313 0 4.313s-3.594 2.875-8.624-5.031c-4.244-6.667-11.556-10.268-13.74-11.231 2.344 1.33 2.959 6.2 2.959 6.2s-5.029-2.875-28.030-6.469c-22.998-3.593-33.779 6.469-33.779 6.469 2.155 2.158 12.218 0 12.218 0 0 2.158-11.499 5.75-22.999 7.187-9.349 1.17-13.882 5.505-16.049 8.981-4.313 2.897-7.929 6.084-10.929 9.46-3.437 3.866-6.063 7.974-8.020 12.142-3.918 8.345-5.169 16.897-5.169 24.453 0.001 7.135 1.111 13.409 2.22 17.937 1.111 4.524 2.225 7.303 2.274 7.427v0l0.154-0.061c1.35 4.154 3.999 7.493 7.136 8.855-0.984 0.672-1.994 1.295-3.035 1.845-4.694 2.511-10.013 3.553-15.243 2.685-5.24-0.828-10.256-3.427-14.714-6.833-4.279-3.264-7.684-7.913-9.917-13.042-2.25-5.148-3.376-10.829-3.376-16.536-0.005-5.714 1.119-11.456 3.191-16.861 2.066-5.413 5.066-10.491 8.692-15.089 3.626-4.604 7.872-8.738 12.478-12.423-4.804 3.423-9.3 7.33-13.235 11.793-3.933 4.452-7.298 9.471-9.754 14.964-2.459 5.483-3.99 11.442-4.325 17.531-0.338 6.082 0.517 12.284 2.675 18.089 2.164 5.794 5.604 11.218 10.5 15.418 2.365 1.98 4.94 3.779 7.736 5.269 2.791 1.49 5.825 2.65 9.020 3.305 3.189 0.656 6.531 0.78 9.789 0.326 3.262-0.445 6.423-1.446 9.347-2.837 2.93-1.39 5.637-3.155 8.115-5.161 1.239-1.006 2.423-2.072 3.554-3.202 0.565-0.563 1.116-1.144 1.655-1.744 0.448-0.505 0.863-0.982 1.311-1.551 2.56 6.639 0.766 17.736 0.344 20.065-1.356 1.918-3.278 4.339-5.447 7.794-1.633 2.608-3.399 5.807-5.207 9.877-2.828 6.363-3.804 12.769-3.804 18.555 0.002 6.756 1.315 12.695 2.623 16.98 0.404 1.32 0.807 2.484 1.175 3.466 4.061 17.666 23.513 35.045 23.513 35.045-27.31 3.593-45.996-21.56-45.996-21.56-0.076 0.046-0.153 0.088-0.23 0.133-1.938-2.146-8.502-9.825-9.113-15.945 0 0 0.226 10.999 2.978 18.688-10.421 3.321-22.685 1.587-28.976 0.282l0.042-0.228c-6.446-1.156-12.332-3.637-17.563-6.759-5.228-3.12-9.788-6.879-13.535-10.519-7.486-7.267-11.712-14.053-11.756-14.128v0l0.001-0.003-0.203 0.125c-13.227-19.169-21.542-60.047-21.542-60.047 1.438 6.469 7.906 14.375 7.906 14.375-7.186-10.78-5.749-60.37-5.749-60.37 0 7.905 4.312 17.248 4.312 17.248 1.438-16.529 8.624-69.712 55.34-109.96s86.243-43.842 86.243-43.842c-9.343 2.876-11.498 7.188-11.498 7.188 30.185-12.218 48.871-10.063 48.871-10.063-5.031 2.875-5.752 5.031-5.752 5.031 32.342-1.438 75.464 10.062 85.526 17.248 10.062 7.188 18.686 21.562 18.686 21.562 25.873 12.217 43.841 37.373 48.87 50.309 5.031 12.937 0 26.591 0 26.591s0 0.718 12.218 28.030c12.217 27.309-0.001 66.12-0.001 66.12zM124.013 325.399c3.031 1.82 6.304 3.462 9.793 4.817-13.837 11.524-12.763 26.7-12.763 26.7-13.846-13.368-17.224-35.929-17.931-49.573 0.195 0.229 0.391 0.459 0.594 0.692 4.684 5.387 11.52 12.086 20.307 17.363z" />
<glyph unicode="&#xe646;" d="M321.855 217.725c0.006 1.216 0.010 2.44 0.010 3.678h-0.036c-0.435 46.118-5.183 75.596-11.767 95.196-3.457 10.278-7.433 17.844-11.556 23.605-4.118 5.761-8.389 9.707-12.291 12.728-4.69 3.623-10.238 5.563-15.315 6.644-5.084 1.078-9.717 1.287-12.651 1.288-0.942 0-1.7-0.022-2.248-0.046-0.547 0.023-1.306 0.046-2.245 0.046-2.934-0.001-7.571-0.21-12.651-1.288-5.077-1.082-10.626-3.021-15.315-6.644-3.904-3.022-8.174-6.966-12.291-12.728-6.187-8.649-12.027-21.33-16.314-41.185-4.022-18.625-6.695-43.587-7.013-77.616h-0.033c0-1.052 0.006-2.084 0.011-3.121-0.007-1.248-0.011-2.505-0.011-3.775h0.038c0.445-44.811 5.19-73.477 11.776-92.554 3.46-10.017 7.44-17.391 11.566-23.009 4.123-5.617 8.395-9.459 12.299-12.401 4.69-3.527 10.232-5.411 15.303-6.466 5.076-1.048 9.708-1.251 12.639-1.253 0.94 0 1.7 0.022 2.245 0.046 0.546-0.022 1.305-0.046 2.247-0.046 2.932 0.002 7.56 0.204 12.639 1.253 5.070 1.055 10.614 2.938 15.299 6.466 3.906 2.944 8.178 6.785 12.301 12.401 6.192 8.43 12.037 20.794 16.329 40.14 4.019 18.115 6.686 42.373 7.015 75.422h0.034c-0.001 1.084-0.007 2.152-0.010 3.219zM305.074 123.687c-3.315-9.594-7.050-16.459-10.829-21.602s-7.6-8.576-11.223-11.313c-3.779-2.86-8.613-4.568-13.2-5.513-4.585-0.947-8.897-1.147-11.574-1.144-0.676 0-1.248 0.014-1.693 0.027l-0.006 0.052h-0.002c-0.009 0-0.204-0.012-0.545-0.029-0.162 0.007-0.299 0.015-0.39 0.022l-0.13 0.007-0.027 0.002h-0.006l-0.005-0.052c-0.448-0.015-1.016-0.027-1.693-0.027-2.679-0.002-6.992 0.197-11.576 1.144-4.588 0.942-9.418 2.652-13.199 5.513-3.623 2.736-7.444 6.171-11.225 11.313-5.662 7.707-11.249 19.317-15.427 38.147-4.037 18.19-6.738 43.089-6.915 77.531 0.207 47.858 5.028 77.859 11.519 97.141 3.319 9.863 7.060 16.923 10.84 22.212 3.786 5.288 7.609 8.816 11.232 11.626 3.78 2.938 8.603 4.691 13.185 5.659 4.577 0.973 8.885 1.174 11.563 1.172 0.679 0 1.25-0.013 1.699-0.027l0.005-0.056h0.001c0.008 0.002 0.203 0.017 0.542 0.034 0.156-0.009 0.292-0.017 0.38-0.022l0.163-0.010 0.006 0.055c0.445 0.014 1.016 0.027 1.698 0.027 2.675 0.001 6.983-0.199 11.563-1.171 4.58-0.969 9.402-2.72 13.185-5.658 3.623-2.812 7.444-6.339 11.228-11.627 5.668-7.926 11.264-19.867 15.444-39.219 4.039-18.692 6.741-44.277 6.918-79.653-0.202-46.598-5.024-75.799-11.509-94.558zM413.207 277.053c-29.358 98.609-105.904 118.933-157.213 118.933-51.94 0-127.844-20.324-157.2-118.933-5.792-19.454-8.086-38.69-7.714-57.208-0.371-18.519 1.922-37.754 7.714-57.21 29.357-98.609 105.261-118.933 157.2-118.933 51.309 0 127.855 20.324 157.213 118.933 5.791 19.454 8.085 38.692 7.713 57.21 0.37 18.517-1.922 37.754-7.713 57.208zM292.014 81.343c-11.053-8.845-29.344-10.303-35.957-10.517-6.614 0.214-25.016 1.673-36.071 10.517-14.944 11.952-34.333 37.276-34.619 138.503 0.286 101.225 19.675 126.549 34.619 138.504 11.054 8.843 29.454 10.301 36.071 10.514 6.613-0.213 24.905-1.672 35.957-10.514 14.945-11.954 34.332-37.279 34.618-138.504-0.286-101.226-19.673-126.55-34.618-138.502z" />
<glyph unicode="&#xe648;" d="M256 357.202c-6.328 0-12.564-0.391-18.691-1.13-0.409 1.515-1.099 2.912-2.014 4.133 3.243 3.313 5.215 7.689 5.215 12.486 0 10.343-9.161 18.728-20.46 18.728s-20.46-8.385-20.46-18.728c0-8.292 5.891-15.32 14.049-17.784-0.107-0.647-0.177-1.306-0.177-1.984 0-0.555 0.051-1.098 0.123-1.632-64.541-18.425-111.79-77.844-111.79-148.299 0-85.166 69.043-154.207 154.209-154.207s154.209 69.042 154.209 154.207c-0.002 85.166-69.043 154.209-154.211 154.209zM204.442 372.69c0 7.888 6.987 14.284 15.607 14.284 8.619 0 15.606-6.394 15.606-14.284 0-3.584-1.446-6.856-3.827-9.364-1.822 1.092-3.949 1.734-6.23 1.734-4.436 0-8.305-2.387-10.423-5.94-6.23 1.875-10.732 7.24-10.732 13.57zM256 73.058c-71.76 0-129.933 58.173-129.933 129.932 0 71.762 58.173 129.935 129.933 129.935s129.934-58.173 129.934-129.935c0-71.759-58.175-129.932-129.934-129.932zM346.688 148.055l8.479-5.392c10.719 17.581 16.894 38.235 16.894 60.329 0 7.789-0.771 15.397-2.234 22.756l-9.185-2.046c-1.156-0.257-2.301 0.443-2.55 1.565-0.251 1.121 0.487 2.24 1.647 2.499l9.204 2.049c-6.793 28.714-24.247 53.305-47.957 69.356l-5.99-9.417c-0.625-0.985-1.92-1.287-2.89-0.669-0.973 0.616-1.249 1.915-0.622 2.902l6.007 9.449c-17.828 11.161-38.904 17.619-61.49 17.619-7.426 0-14.686-0.705-21.724-2.039l2.391-10.739c0.256-1.151-0.444-2.286-1.566-2.535-1.121-0.25-2.24 0.48-2.495 1.63l-2.405 10.801c-29.113-6.609-54.070-24.16-70.313-48.105l9.517-6.050c0.999-0.635 1.308-1.936 0.691-2.906s-1.928-1.241-2.924-0.606l-9.554 6.074c-11.196-17.851-17.679-38.959-17.679-61.587 0-7.733 0.763-15.29 2.206-22.599l11.073 2.465c1.157 0.259 2.3-0.443 2.548-1.564s-0.488-2.241-1.644-2.497l-11.101-2.473c6.867-29.2 24.761-54.142 49.047-70.202l6.793 10.683c0.626 0.986 1.923 1.288 2.891 0.671s1.249-1.917 0.62-2.902l-6.798-10.69c17.602-10.754 38.287-16.952 60.422-16.952 8.095 0 16.001 0.833 23.63 2.409l-2.438 10.947c-0.255 1.149 0.445 2.286 1.567 2.534s2.24-0.481 2.495-1.63l2.433-10.928c28.796 7.050 53.376 24.839 69.245 48.892l-8.477 5.39c-0.999 0.634-1.307 1.935-0.692 2.904 0.62 0.969 1.93 1.24 2.926 0.604zM209.298 235.565l21.205-7.732c3.050 3.132 6.673 5.7 10.701 7.543v42.987l18.607-39.971c1.461-0.156 2.894-0.401 4.295-0.727l-3.117-2.924c-1.623 0.254-3.289 0.388-4.989 0.388-17.75 0-32.137-14.388-32.137-32.138 0-3.665 0.622-7.182 1.752-10.462l-2.259-3.755c-0.018 0.038-0.035 0.076-0.052 0.115h-42.441l39.819 18.537c0.565 4.543 1.976 8.823 4.088 12.67l-15.471 15.47zM186.41 118.142l57.232 95.123 80.183 75.207-57.23-95.124-0.407-0.383-79.779-74.822zM304.613 172.851l-20.781 7.947c-2.782-3.483-6.202-6.43-10.083-8.667l0.536 0.089-0.692-44.368-17.662 39.536c-3.063 0.007-6.031 0.404-8.867 1.137l3.065 2.875c1.905-0.353 3.865-0.545 5.87-0.545 17.75 0 32.137 14.389 32.137 32.136 0 4.959-1.125 9.651-3.128 13.844l2.093 3.479c0.038-0.067 0.080-0.13 0.118-0.199l43.455-0.677-39.095-17.464c-0.129-4.536-1.093-8.865-2.764-12.822l15.796-16.299zM255.638 212.94c-5.486-0.246-9.733-4.89-9.489-10.373 0.246-5.486 4.891-9.733 10.377-9.49s9.735 4.89 9.488 10.375c-0.244 5.486-4.889 9.735-10.375 9.489z" />
<glyph unicode="&#xe649;" d="M256.238 152.926v-0.001zM97.368 399.879l28.873-323.844 129.564-35.966 129.925 36.019 28.901 323.79h-317.263zM354.643 325.807l-9.761-109.451h-0.001l-6.757-75.512-0.598-6.712-81.47-22.584-81.358 22.584-5.564 62.364h39.869l2.828-31.675 44.27-11.93 0.115 0.031 0.022 0.007 44.162 11.921 4.632 51.51-92.704-0.007-0.796 8.927-1.811 20.136-0.949 10.656 99.789 0.005 3.628 40.671h-151.988l-0.794 8.928-1.811 20.136-0.949 10.656h198.952l-0.953-10.658z" />
<glyph unicode="&#xe64b;" d="M199.928 390.632c-16.411-3.61-37.745-10.284-48.686-15.207-2.734-1.313-6.346-2.954-8.206-3.719-11.596-4.924-38.513-18.927-43.653-22.758-2.956-2.079-9.519-6.237-9.956-6.237-0.327 0-1.421-0.766-2.515-1.641-0.986-0.984-5.579-4.487-10.066-7.878-10.941-8.206-28.227-25.164-35.995-35.448-5.689-7.55-10.175-15.644-16.193-28.883-1.532-3.501-1.97-7.22-1.97-18.053v-13.675l4.158-8.206c2.409-4.485 4.596-8.424 5.033-8.752 0.329-0.329 2.078-2.736 3.938-5.361 3.612-5.361 22.758-23.851 26.587-25.6 1.314-0.546 2.406-1.421 2.406-1.86 0-0.656 11.378-8.971 17.287-12.582 0.986-0.546 2.736-1.969 3.938-2.954 1.203-1.094 3.063-2.19 4.158-2.626 1.094-0.329 1.97-1.094 1.97-1.642 0-0.546 0.656-0.986 1.532-0.986s1.75-0.327 1.972-0.766c0.437-1.094 8.205-6.892 9.19-6.892 0.766 0 5.909-5.25 5.909-6.125 0-0.33-1.641-1.314-3.502-2.19-1.97-0.875-5.579-2.736-7.989-4.159s-6.564-3.719-9.299-5.141c-2.734-1.314-5.142-2.846-5.471-3.173-0.327-0.438-2.626-2.079-5.251-3.721-16.74-10.503-31.947-25.272-37.419-36.431-9.19-18.928-5.798-41.795 7.55-51.204 4.594-3.283 4.923-3.283 20.897-3.612 18.927-0.437 18.817-0.437 41.904 11.488 1.641 0.877 2.956 2.079 2.956 2.626s0.437 0.986 1.094 0.986c0.546 0 3.063 2.187 5.689 4.817 12.91 13.127 16.412 18.817 21.226 35.010 3.61 11.814 3.829 34.572 0.439 44.092-1.203 3.502-2.19 6.673-2.19 7.109s2.734 2.406 6.126 4.375c3.392 1.971 7.878 4.704 10.065 6.019 5.142 3.062 6.126 3.062 5.25 0.108-1.641-5.579-3.938-23.633-3.938-30.307 0-7.329 2.517-21.662 4.377-25.055 0.546-0.986 2.079-4.267 3.501-7.111 1.313-2.955 4.047-6.783 6.126-8.534 3.284-2.846 4.267-3.173 11.488-3.173 8.644 0 10.941 1.202 16.191 8.752 2.626 3.83 3.284 5.033 10.175 19.693l3.829 8.206 0.109-9.409c0-9.299 1.422-16.302 3.392-16.302 0.546 0 0.983-0.656 0.983-1.314 0-1.75 5.033-4.157 8.425-4.157 7.001 0 14.88 7.002 21.662 19.146 5.362 9.627 10.614 19.585 13.348 25.163 1.421 3.063 3.173 6.457 3.83 7.658 2.625 4.596 6.346 12.582 6.346 13.896 0 0.766 0.986 2.625 2.187 4.157s2.187 3.391 2.187 4.157c0 0.875 0.656 2.846 1.532 4.375 0.875 1.642 3.173 6.892 5.252 11.598l3.61 8.642 0.877-3.719c2.187-9.41 4.593-16.302 7.987-23.414 2.079-4.267 3.721-8.313 3.721-9.081 0-1.75-13.13-18.817-14.442-18.817-0.438 0-0.877-0.766-0.877-1.642s-0.327-1.642-0.766-1.642c-0.547 0-3.284-3.063-6.237-6.892-2.954-3.719-6.017-7.219-6.673-7.878-2.517-2.296-5.033-9.409-4.378-12.473 2.187-10.175 27.68-8.207 45.186 3.502 4.922 3.283 11.158 8.971 11.158 10.175 0 0.33 1.094 2.187 2.517 4.047 2.187 3.173 2.406 4.815 2.406 16.084 0 10.065-0.438 13.567-2.079 17.285-1.967 4.271-1.967 4.704-0.327 6.565 1.094 1.094 1.86 2.406 1.86 2.735 0 0.438 1.639 3.173 3.61 6.019 3.502 4.922 5.798 8.971 13.127 22.101 6.128 11.158 5.798 11.048 8.426 2.079 2.515-8.971 6.017-17.725 8.423-21.335 1.421-2.187 1.094-2.735-4.375-8.206-6.346-6.346-13.896-15.536-13.896-16.74 0-0.547-0.875-2.19-1.969-3.719-2.735-4.157-5.689-14.332-5.689-19.805 0-3.938 0.656-5.359 3.719-8.422 3.173-3.173 4.485-3.721 8.752-3.721 2.736 0 6.783 0.766 9.081 1.75 15.538 6.675 18.271 8.426 26.039 16.524 8.752 8.971 11.596 20.897 7.658 32.055-0.875 2.515-1.642 5.033-1.642 5.579 0 0.437 2.846 1.971 6.346 3.283 5.579 2.298 8.097 2.517 24.836 2.517 19.693 0.11 22.976-0.547 37.525-7.219 6.017-2.844 14.553-11.158 17.834-17.395 3.829-7.219 3.613-17.615-0.329-23.633-1.642-2.517-5.143-6.127-7.878-8.095-3.065-2.079-5.033-4.378-5.033-5.69 0-1.859 0.546-2.079 4.922-1.642 6.565 0.766 14.332 6.564 18.82 14.004 3.391 5.689 3.61 6.564 3.61 16.521 0 14.332-3.502 22.431-14.223 32.716-12.8 12.364-29.539 18.491-50.327 18.601-10.722 0-28.010-3.063-33.589-5.798-6.454-3.284-8.863-3.173-10.503 0-7.44 13.896-7.55 14.55-7.658 27.68-0.11 10.506 0.329 13.567 2.298 18.601 3.283 8.206 3.173 11.815-0.438 13.13-5.252 2.079-24.179 0.766-26.803-1.861-0.877-0.875-2.626-6.454-5.361-17.286-1.202-4.925-8.86-19.914-21.773-42.779l-4.925-8.534-2.405 5.361c-2.955 6.457-5.252 19.038-4.488 24.726 0.329 2.298 1.859 8.425 3.502 13.567l3.065 9.519-2.409 2.296c-1.969 2.079-3.612 2.406-10.283 2.406-4.267 0-10.175-0.657-12.91-1.422-4.925-1.532-5.033-1.532-7.441-9.299-2.625-8.425-5.141-15.428-6.781-18.601-0.658-1.092-4.488-9.845-8.645-19.365-4.157-9.519-7.987-18.272-8.532-19.365-1.094-2.296-2.956-6.346-7.879-17.286-5.033-11.158-8.971-19.257-11.269-22.976l-2.079-3.284 0.657 8.206c0.437 4.485 1.313 10.175 1.97 12.582s1.749 7.111 2.517 10.394c0.875 3.284 2.734 10.613 4.267 16.303 1.532 5.579 2.845 11.378 2.845 12.69 0 4.048-5.033 7.333-10.612 6.892l-4.704-0.329v7.99c0 8.534-0.875 11.050-5.25 15.862-2.517 2.735-3.501 2.954-10.722 2.954-12.145 0-21.117-4.922-34.901-19.145-5.362-5.579-11.378-10.394-15.317-12.582-8.971-4.817-17.178-9.299-26.257-14.442-4.158-2.296-8.425-4.704-9.299-5.143-1.094-0.655-2.734 0.219-5.142 2.517-6.892 6.892-11.049 10.394-28.773 24.179-20.46 15.973-28.010 23.414-33.589 32.822-6.782 11.379-8.315 21.226-5.251 33.808 1.532 6.564 7.438 19.038 10.394 22.319 0.984 0.986 2.078 2.736 2.515 3.829 0.329 0.986 1.203 1.86 1.861 1.86 0.546 0 1.094 0.437 1.094 0.983 0 0.986 12.802 14.333 13.675 14.333 0.219 0 2.079 1.532 4.048 3.392 1.97 1.75 5.909 4.814 8.864 6.673 2.846 1.86 5.141 3.83 5.141 4.375 0 0.439 0.547 0.875 1.094 0.875 0.657 0 3.501 1.641 6.346 3.61 2.846 1.86 7.331 4.705 10.067 6.128s5.47 3.063 6.237 3.612c3.063 2.405 24.29 13.020 36.433 18.271 7.878 3.392 22.866 8.096 37.201 11.815 10.612 2.735 13.239 2.954 33.369 2.954 20.349 0 22.32-0.109 27.899-2.517 9.957-4.049 12.474-5.471 16.191-8.971 6.675-6.236 7.332-8.097 7.223-19.585-0.111-9.955-0.219-10.722-4.704-19.693-8.971-17.942-24.834-33.697-45.514-45.184-5.362-2.954-7.659-4.048-14.223-6.783-1.75-0.766-5.034-2.189-7.22-3.063-8.753-3.719-33.807-8.425-44.638-8.425-5.25 0-16.74 1.86-20.349 3.393-7.331 2.954-10.722 4.925-14.989 8.752-5.142 4.704-7.767 5.033-8.315 1.203-1.093-7.219 7.55-18.053 18.381-23.304 12.035-5.798 16.191-6.673 32.933-7.331 13.458-0.439 18.053-0.109 28.447 1.859 14.333 2.736 22.208 4.815 29.978 7.768 3.063 1.203 5.907 2.187 6.454 2.187 1.749 0 19.255 9.081 19.255 10.066 0 0.437 0.547 0.875 1.094 0.875 2.19 0 13.57 9.081 21.118 16.738 22.647 22.976 32.931 49.234 29.212 73.962-0.875 5.141-2.736 11.924-4.267 14.88-2.955 6.017-14.114 17.613-19.258 20.24-1.859 0.875-4.593 2.409-6.236 3.501-1.532 1.094-3.392 1.97-4.157 1.97s-2.844 0.657-4.707 1.532c-1.967 0.766-7.769 2.517-12.91 3.83-13.346 3.283-50 3.283-64.988-0.109zM219.294 190.634c-0.329-5.798-7.768-29.868-12.8-41.137-1.532-3.393-2.736-6.783-2.736-7.55s-0.875-3.281-2.079-5.689c-1.094-2.298-3.283-6.892-4.814-10.175-3.613-7.878-7.001-11.488-9.081-9.737-5.798 4.815-4.487 30.524 2.517 46.938 2.406 5.798 6.237 13.567 7.001 14.222 0.329 0.329 1.75 2.406 3.173 4.817 1.314 2.298 3.501 5.25 4.814 6.564 2.956 3.173 11.815 8.425 13.239 7.878 0.657-0.219 0.986-2.954 0.767-6.127zM369.839 151.354c-0.329-6.673-0.766-7.987-4.267-12.252-2.187-2.626-6.017-5.909-8.534-7.219l-4.485-2.406 0.656 2.955c1.639 7.987 12.91 26.476 16.084 26.476 0.547 0 0.875-3.173 0.547-7.55zM125.42 138.010c1.861-9.628 0-26.697-3.829-34.026-9.955-19.365-26.697-32.603-42.013-33.37-5.471-0.327-7.002 0-9.299 1.969-2.409 1.971-2.736 3.173-2.736 9.082 0 11.158 6.782 23.305 18.709 33.478 9.737 8.313 10.284 8.752 11.378 8.752 0.657 0 1.421 0.766 1.75 1.642 0.437 0.875 1.094 1.639 1.641 1.639 0.437 0 4.814 2.626 9.518 5.798 10.505 6.892 12.582 8.315 13.457 8.315 0.439 0.11 0.986-1.421 1.421-3.283z" />
<glyph unicode="&#xe64c;" d="M255.954 266.85v-0.010c0.016 0 0.030 0.006 0.049 0.006 0.017 0 0.031-0.006 0.050-0.006v0.010c8.719 0.092 18.639 12.191 18.639 12.191-6.809-4.119-12.889-5.547-18.688-5.673-5.801 0.125-11.879 1.554-18.687 5.673-0.001 0 9.913-12.099 18.637-12.191zM234.032 108.902h-4.38c-4.57 0-9.917 0-13.093-0.005l-2.667-0.005c-3.745 0-5.591-1.072-6.479-1.969-1.291-1.308-1.49-3.126-0.6-5.398 2.38-6.079 7.782-11.041 9.377-12.418 2.088-1.805 5.097-2.875 8.047-2.875 3.024 0 5.704 1.087 7.548 3.059 5.143 5.499 8.181 11.414 8.913 13.231 0.423 1.038 0.906 3.010-0.603 4.561-1.174 1.2-3.216 1.817-6.066 1.817zM166.538 265.733c-0.782-6.86 3.573-13.099 3.573-13.099 0.444 5.101 1.513 8.735 2.755 11.326 0.294-7.045 2.172-16.102 8.732-23.363 4.713-5.216 24.358-15.988 37.543-4.178 0.689-1.671 1.413-3.644 2.024-5.793 1.992-7.020-1.821-17.28-1.821-17.28s10.302 11.673 9.506 22.255c7.395 0.322 14.663 5.756 14.457 13.352 0 0-12.901-7.121-24.299 5.988-6.655 7.653-27.977 28.754-56.893 21.74 2.972-0.654 6.090-1.619 9.267-2.821-0.028-0.012-0.054-0.019-0.083-0.030-2.802-1.234-4.372-4.712-4.762-8.1zM185.949 266.971c13.357-7.512 25.625-17.565 30.733-25.337h-0.001c0 0 0.007-0.018 0.012-0.022-3.93-2.281-14.844-7.14-25.982 1.135-7.117 5.292-6.795 18.016-4.764 24.223zM298.118 108.894l-2.666 0.005c-3.178 0.005-8.522 0.005-13.089 0.005h-4.387c-2.848 0-4.887-0.617-6.062-1.817-1.507-1.55-1.029-3.525-0.608-4.561 0.735-1.817 3.777-7.734 8.921-13.231 1.841-1.972 4.521-3.059 7.546-3.059 2.95 0 5.954 1.071 8.044 2.875 1.599 1.377 6.998 6.339 9.38 12.418 0.89 2.274 0.689 4.093-0.603 5.398-0.887 0.899-2.731 1.969-6.474 1.969zM283.152 235.603c-0.798-10.583 9.505-22.255 9.505-22.255s-3.813 10.26-1.822 17.28c0.612 2.149 1.334 4.121 2.022 5.792 13.183-11.81 32.829-1.040 37.539 4.178 6.565 7.262 8.443 16.325 8.736 23.369 1.243-2.592 2.313-6.227 2.757-11.332 0 0 4.356 6.238 3.57 13.099-0.383 3.388-1.953 6.866-4.754 8.101-0.028 0.012-0.054 0.018-0.086 0.030 3.179 1.202 6.296 2.168 9.267 2.821-28.914 7.013-50.24-14.089-56.896-21.74-11.398-13.109-24.296-5.988-24.296-5.988-0.203-7.596 7.062-13.030 14.455-13.353zM295.316 241.627c0.002 0.002 0.002 0.004 0.004 0.006 5.109 7.772 17.375 17.826 30.736 25.335 2.034-6.208 2.354-18.929-4.764-24.222-11.142-8.28-22.057-3.413-25.983-1.133 0.004 0.005 0.007 0.013 0.007 0.013zM363.61 178.162c-1.635-12.233-8.917-23.161-16.821-29.938-2.098 15.549-2.54 37.986-2.536 42.697 0 10.056 6.495 16.78 8.339 17.844 1.738 1.005 3.67 2.035 5.693 3.123 12.32 6.597 27.654 14.802 27.654 29.933 0 11.059-6.358 15.857-10.565 19.032-0.531 0.4-1.029 0.774-1.476 1.135-1.425 1.149-2.55 2.058-2.96 2.982-2.978 6.699-2.433 23.438-1.142 25.741 0.378 0.443 11.449 14.325 8.052 26.793-1.389 5.087-4.724 9.11-9.655 11.632-3.635 1.859-8.127 2.889-13.363 3.082-0.062 1.351-0.346 2.692-0.633 4.017-0.387 1.782-0.785 3.628-0.625 5.521 0.271 3.184 0.521 6.182 1.479 7.7 5.782 9.122 19.74 12.042 19.878 12.071l8.39 1.645-5.562 6.502c-0.1 0.12-11.825 11.957-31.68 11.957-5.418 0-10.962-0.899-16.48-2.682-16.583-5.347-29.336-20.87-33.776-26.873-2.15 0.668-4.335 1.277-6.555 1.828-2.864 10.813 6.126 26.327 6.126 26.327s-9.271 2.065-23.035-10.428c-1.782 4.445-5.522 14.036-1.203 25.485-20.157-7.12-25.26-17.987-26.769-27.844-5.185 3.712-4.609 15.779-4.895 18.873-5.154-0.615-19.957-14.978-19.292-33.070-1.351-0.368-2.689-0.757-4.013-1.168-4.441 6.001-17.194 21.525-33.78 26.874-5.518 1.782-11.063 2.684-16.476 2.684-19.857 0-31.581-11.834-31.68-11.957l-5.563-6.502 8.389-1.645c0.137-0.028 14.097-2.95 19.874-12.070 0.959-1.515 1.215-4.517 1.481-7.698 0.163-1.893-0.239-3.738-0.621-5.522-0.288-1.326-0.575-2.668-0.636-4.022-5.238-0.193-9.733-1.223-13.367-3.082-4.929-2.522-8.266-6.546-9.653-11.632-3.399-12.469 7.671-26.351 8.050-26.793 1.291-2.304 1.837-19.042-1.145-25.741-0.409-0.923-1.535-1.832-2.959-2.982-0.444-0.361-0.942-0.734-1.472-1.136-4.208-3.175-10.567-7.974-10.567-19.032 0-15.13 15.337-23.336 27.66-29.932 2.022-1.087 3.951-2.116 5.696-3.123 1.84-1.063 8.335-7.786 8.338-17.844 0-4.711-0.439-27.152-2.535-42.702-7.906 6.776-15.191 17.707-16.827 29.943 0 0-20.003-15.437-14.126-48.473 5.337-30.009 29.799-40.452 58.192-42.654 9.512-22.176 24.612-42.086 63.495-42.118v-0.006c0.017 0 0.030 0.006 0.049 0.006 0.017 0 0.031-0.006 0.050-0.006v0.006c38.879 0.034 53.976 19.94 63.492 42.118 28.388 2.202 52.851 12.646 58.192 42.654 5.88 33.036-14.123 48.471-14.123 48.471zM333.822 369.495c3.863 1.248 7.924 1.877 12.087 1.877 7.534 0 13.645-2.054 16.898-3.432-2.107-0.949-4.387-2.152-6.63-3.649-1.651 0.285-3.801 0.536-6.294 0.536-7.194 0-13.995-2.11-19.675-6.1-8.43-5.928-12.336-11.577-14.132-15.303-1.5 0.862-3.106 1.719-4.832 2.561-1.070 0.522-2.154 1.024-3.248 1.511 4.198 6.149 13.62 18.063 25.826 21.999zM348.179 357.013c-0.55-0.705-1.075-1.44-1.563-2.211-2.266-3.581-2.635-7.957-2.993-12.187-0.375-4.395-0.731-8.568-2.993-11.61-2.86-0.536-5.524-1.183-7.856-1.827-1.548 2.147-3.845 4.797-7.191 7.637 0.985 3.286 3.784 11.048 9.271 15.412 3.758 2.992 8.24 4.587 13.325 4.785zM155.845 364.293c-2.248 1.499-4.532 2.704-6.639 3.654 3.251 1.377 9.36 3.431 16.894 3.431 4.161 0 8.228-0.63 12.090-1.877 12.202-3.936 21.625-15.849 25.827-22-1.096-0.487-2.184-0.991-3.256-1.514-1.726-0.841-3.327-1.698-4.827-2.559-1.798 3.728-5.704 9.375-14.132 15.298-5.683 3.989-12.485 6.099-19.678 6.099-2.488 0-4.635-0.25-6.282-0.534zM186.424 336.818c-3.349-2.842-5.644-5.493-7.194-7.64-2.329 0.644-4.992 1.29-7.844 1.825l-7.549 26.009c5.081-0.202 9.564-1.797 13.317-4.786l9.268-15.407zM164.4 217.413c-1.859 1.068-3.802 2.118-5.756 3.178-10.168 5.493-20.679 11.175-20.679 20.879 0 7.59 2.951 9.964 6.075 12.482l1.913 2.168c-0.662-5.225-1.367-9.75-1.929-10.869 0 0 8.306 10.299 10.766 30.34 0.968 7.893-0.75 23.463-3.498 29.453 0.113-3.337 0.007-6.67-0.222-9.835-0.269 0.566-0.563 1.067-0.887 1.472-2.202 2.748-8.094 11.989-6.399 18.196 0.645 2.368 2.137 4.125 4.569 5.37 2.571 1.317 6.043 1.984 10.321 1.984 8.399 0 17.714-2.556 22.519-4.077 17.174-5.443 37.895-21.135 43.835-25.816 0.17-0.131 0.272-0.206 0.29-0.219l3.802-2.643-2.379 3.978c-0.135 0.231-13.072 21.481-36.375 31.826 1.373 1.976 5.030 5.564 14.768 10.311 14.674 7.158 31.79 10.786 50.865 10.791 19.078-0.008 36.188-3.635 50.861-10.791 9.738-4.75 13.399-8.337 14.771-10.315-23.296-10.346-36.228-31.594-36.37-31.824l-2.377-3.978 3.803 2.643c0.019 0.012 0.12 0.089 0.288 0.219 5.942 4.681 26.665 20.374 43.836 25.817 4.807 1.522 14.127 4.077 22.519 4.077 4.279 0 7.749-0.667 10.321-1.984 2.428-1.245 3.921-3.001 4.571-5.37 1.693-6.208-4.205-15.447-6.403-18.196-0.325-0.407-0.62-0.909-0.892-1.479-0.231 3.167-0.337 6.503-0.224 9.843-2.747-5.99-4.458-21.561-3.491-29.453 2.459-20.040 10.762-30.341 10.762-30.341-0.535 1.072-1.203 5.269-1.839 10.21 0.503-0.432 1.009-0.841 1.497-1.237l0.335-0.272c3.123-2.517 6.075-4.892 6.075-12.482 0-9.703-10.512-15.385-20.677-20.879-1.959-1.058-3.902-2.11-5.76-3.178-5.936-3.422-12.334-11.443-13.048-23.401-0.601-10.012 0.599-34.149 2.337-51.913-8.517-3.296-18.281-4.381-27.161-4.636-1.387 2.826-2.685 5.849-3.756 8.994-0.458 1.338-13.399 34.942-18.055 42.597 3.734-26.683 11.987-50.415 16.085-61.318-2.363 0.322-5.014 0.505-8.010 0.505 0 0-28.428 0.017-39.942 0.023-0.015 0-0.036 0-0.049 0 0 0-0.036 0-0.050 0-11.509-0.007-39.947-0.023-39.947-0.023-2.996 0-5.649-0.185-8.010-0.507 4.098 10.903 12.351 34.635 16.085 61.319-4.659-7.656-17.601-41.257-18.056-42.597-1.072-3.147-2.371-6.168-3.759-8.994-8.877 0.255-18.638 1.338-27.156 4.635 1.74 17.762 2.936 41.899 2.339 51.913-0.716 11.954-7.117 19.976-13.053 23.397zM191.959 120.86c-0.351-0.336-0.68-0.67-0.983-0.998-4.947-5.338-5.881-12.685-2.8-21.813-15.44 0.245-31.581 6.846-39.781 20.342-8.31 13.67-5.98 37.005-2.564 40.425 7.466-23.555 32.309-30.287 50.912-31.103-1.837-2.861-3.53-5.204-4.784-6.851zM314.092 98.683c-4.517-12.933-16.651-44.243-58.089-44.293-41.444 0.053-53.575 31.36-58.090 44.293-2.5 7.177-2.308 12.486 0.584 15.786 1.976 2.255 6.517 4.946 16.861 4.946l10.806 0.006c7.974 0.007 17.984 0.015 29.841 0.019 11.851-0.004 21.866-0.014 29.839-0.019l10.801-0.006c10.349 0 14.887-2.69 16.867-4.946 2.887-3.302 3.079-8.609 0.58-15.786zM363.611 118.388c-8.206-13.493-24.344-20.096-39.781-20.342 3.079 9.129 2.144 16.478-2.798 21.813-0.308 0.335-0.643 0.675-1.002 1.017-1.253 1.647-2.94 3.983-4.771 6.832 18.606 0.815 43.449 7.546 50.911 31.103 3.415-3.418 5.743-26.752-2.56-40.423z" />
<glyph unicode="&#xe64d;" d="M210.767 325.014c-11.483-0.001-20.794-9.31-20.794-20.794s9.31-20.795 20.794-20.795c11.484 0 20.794 9.31 20.794 20.795s-9.309 20.794-20.794 20.794zM210.767 305.913c-6.692 0-12.118 3.373-12.118 7.534s5.424 7.534 12.118 7.534c6.69 0 12.118-3.372 12.118-7.534 0-4.161-5.424-7.534-12.118-7.534zM447.722 223.024c-20.507 19.706-123.044 32.005-155.399 35.585 1.568 3.702 2.901 7.53 4.005 11.471 4.412 1.933 9.17 3.73 14.094 5.231 0.599-1.769 3.424-8.55 5.034-11.767 65.061-1.795 68.402 48.349 71.048 62.086 2.589 13.433 2.457 26.411 24.772 50.137-33.248 9.69-81.057-15.015-97.072-51.787-6.017 2.256-12.050 3.92-18.015 4.95-4.274 17.244-26.536 65.287-84.952 65.287-37.833 0-75.984-15.622-104.67-42.863-15.459-14.678-27.6-32.107-36.087-51.806-9.168-21.28-13.818-44.709-13.818-69.639 0-86.827 59.278-162.917 92.771-162.917 14.627 0 27.209 10.953 30.162 20.771 2.477-6.733 10.075-27.66 12.569-32.988 3.689-7.877 20.746-14.694 28.21-6.521 9.598-5.332 27.21-8.543 36.809 5.677 18.485-3.911 34.829 7.113 35.183 20.267 9.070 0.483 13.519 13.219 11.538 23.36-1.459 7.469-17.056 34.262-23.141 43.51 12.046-9.796 42.551-12.57 46.255-0.006 19.418-15.238 49.678-7.243 52.079 5.154 23.595-6.13 50.656 7.333 46.212 23.641 37.901 2.622 33.051 42.949 22.416 53.168zM349.018 289.865c-9.985 3.919-22.647 6.398-31.523 6.398-12.587 0-20.253-7.132-32.096-7.132-2.487 0-8.419-0.013-13.18 1.683 3.133-3.284 7.029-5.064 14.579-5.064 4.511 0 13.444 2.303 20.678 4.477 0.101-1.523 0.26-3.035 0.474-4.536-13.55-3.239-27.769-11.859-31.885-14.097-9.154 20.213-1.286 39.327 5.993 48.15 32.599-0.079 58.928-22.463 66.958-29.88zM363.113 291.389l-4.988 4.656c-5.12 4.796-10.458 9.135-15.939 12.987 8.163 16.197 18.421 33.885 31.38 44.825-14.262-5.747-28.343-22.928-36.668-41.293-4.241 2.697-8.55 5.104-12.896 7.206 11.613 24.788 38.597 45.49 68.337 47.106-19.919-18.066-12.44-54.123-29.228-75.489zM322.193 274.493c-2.197 4.76-4.421 12.67-4.149 17.317 3.701 0.087 10.799-1.301 11.94-1.57-0.433-2.181-0.666-6.964-0.673-7.584 0.703 1.212 2.654 5.389 3.45 7.032 7.106-1.359 16.45-3.629 21.93-6.182-6.433-4.164-17.365-8.697-32.498-9.013zM277.781 330.394c-25.994-26.345-15.729-59.67-6.265-74.735-13.463-22.396-39.931-37.717-70.675-44.688 34.517 0 54.816 8.883 66.625 17.587 7.536 5.553 11.623 11.034 13.712 14.084 51.174-3.31 132.207-19.796 140.111-25.137 3.172-2.144 6.445-6.885 6.927-11.422-38.457 5.385-107.774 11.046-125.928 12.009 12.887-1.827 106.865-19.623 123.159-23.79-4.959-8.086-16.253-13.793-33.276-9.827 9.197-12.531-8.663-27.565-33.538-19.285 5.476-12.303-16.674-23.377-41.848-10.556 0.319-12.306-31.231-13.726-43.701-0.125 0.238-1.621 1.718-4.724 2.357-6.081-4.018-35.936-33.452-58.231-63.599-58.231-73.814 0-138.118 59.95-138.118 139.71 0 84.324 62.317 147.244 137.513 147.244 43.083 0.001 62.545-33.911 66.543-46.759z" />
<glyph unicode="&#xe663;" d="M328.339 404.341c-0.365-0.292-10.555-10.848-22.567-23.514l-21.839-23.005-8.735-34.069-24.387-0.437c-45.355-0.946-72.143-4.587-77.093-10.483-0.946-1.092-0.802-1.456 0.874-2.912 11.866-10.191 105.556-13.176 148.87-4.805 15.36 2.985 19.291 6.698 10.921 10.264-6.334 2.767-29.557 6.552-39.966 6.552-2.838 0-3.494 0.218-3.494 1.31 0 0.656 1.602 7.353 3.494 14.778l3.421 13.539 20.384 21.548c11.212 11.866 20.456 22.132 20.602 22.713 0.728 3.276-7.935 10.264-10.481 8.517zM174.446 303.442c0-2.185 8.808-85.028 9.245-86.339 0.145-0.582 0.874 0.51 1.601 2.62 6.478 18.127 19.364 33.488 30.284 36.035 5.315 1.237 9.317-0.073 13.613-4.368 4.732-4.732 5.605-9.828 1.966-11.793-1.821-0.946-3.567 0.364-5.899 4.587-5.023 8.954-14.341 4.223-24.387-12.521-10.627-17.618-13.394-37.127-5.315-37.127 2.984 0 10.191 5.679 15.215 11.94 3.419 4.368 4.732 6.771 6.625 12.375 1.237 3.786 2.694 7.28 3.276 7.716s1.893 0.728 3.058 0.583c1.893-0.219 2.038-0.51 2.256-3.641 0.146-2.402-0.437-5.315-2.038-9.827-2.111-5.969-4.513-13.613-9.026-28.61-1.018-3.421-2.328-6.916-2.984-7.789-1.602-2.255-3.858-2.111-4.877 0.218-0.728 1.529-0.51 3.132 1.53 9.973 1.31 4.514 2.62 8.809 2.838 9.609 0.219 0.947-1.456-0.292-4.587-3.204-7.28-6.771-14.414-9.608-18.637-7.353-1.237 0.656-1.383 0.51-1.383-1.237 0-5.532 5.242-55.182 5.898-55.98 2.184-2.622 17.691-7.062 33.414-9.538 12.012-1.892 46.226-1.892 58.238 0 10.337 1.674 21.621 4.297 27.080 6.333 7.716 2.839 6.771-0.292 11.139 37.491 2.111 18.418 3.786 33.632 3.64 33.704-0.146 0.146-2.476-1.602-5.168-3.858-5.824-4.95-9.683-6.844-13.977-6.916-3.858 0-5.824 0.947-6.698 3.349-1.019 2.548 0.364 5.534 5.897 12.375 6.188 7.644 7.207 9.099 7.207 10.628 0 3.276-7.498-0.146-11.793-5.387-1.382-1.747-3.421-4.587-4.514-6.334-2.474-3.858-8.881-18.49-12.084-27.589-2.476-7.062-4.804-10.337-7.209-10.337-1.382 0-3.712 1.748-3.712 2.767 0 1.894 2.329 7.788 6.624 17.182 2.767 5.969 5.024 10.992 5.024 11.139s-1.385-0.8-3.131-2.183c-4.15-3.421-8.735-5.606-11.575-5.606-2.767 0-5.678 1.748-5.678 3.349 0 1.312 0.146 1.385-4.44-1.164-6.916-3.786-10.846-2.402-10.846 3.932v2.912l-2.984-3.132c-5.46-5.604-12.886-7.57-16.963-4.368-2.62 2.039-2.548 6.844 0.219 15.143 5.023 14.849 8.881 20.674 12.303 18.49 2.111-1.31 1.747-3.421-1.601-10.337-5.75-11.866-6.114-17.471-1.018-16.015 4.877 1.385 10.702 9.027 14.778 19.219 1.092 2.839 2.475 5.679 3.13 6.406 1.602 1.82 4.004 1.31 4.805-1.019 0.509-1.529 0-3.568-2.839-10.555-2.329-5.68-3.568-9.755-3.568-11.94-0.072-3.131 0-3.276 2.039-3.131 2.62 0.219 6.843 2.983 7.425 4.95 2.257 7.351 19.073 48.41 20.384 49.867 1.456 1.456 2.039 1.674 3.713 1.019 1.237-0.437 2.111-1.31 2.255-2.256 0.146-0.874-1.237-4.951-3.058-9.1-7.136-16.525-16.452-40.403-16.452-42.222 0-1.164 0.364-2.038 0.728-2.038 1.748 0 6.553 3.058 11.793 7.498 4.659 4.077 5.75 5.387 6.771 8.663 2.767 8.444 4.804 10.846 7.788 9.245 1.164-0.656 1.382-1.31 1.092-3.276-0.218-1.385-0.218-2.476 0-2.476s1.892 1.31 3.64 2.983c5.532 5.024 10.264 6.262 14.632 3.567 2.038-1.237 2.329-1.82 2.329-4.587 0-3.786-2.912-8.954-9.027-16.161-2.255-2.62-4.077-5.096-4.077-5.532 0-0.364 0.728-0.656 1.674-0.656 1.602 0 13.832 9.392 16.524 12.666 0.8 1.019 2.476 14.414 6.334 49.867 2.838 26.644 5.168 48.556 5.022 48.629-0.072 0.145-1.965-0.437-4.223-1.237-5.679-1.966-17.981-4.077-32.76-5.606-16.015-1.601-70.25-1.821-86.119-0.364-14.778 1.384-29.047 3.64-35.090 5.605l-5.315 1.674v-1.601zM196.285 122.832c0-0.146 2.329-4.223 5.095-9.027l5.169-8.808 2.111-29.264 2.185-29.337 2.185-1.892c5.46-4.659 18.563-7.28 38.946-7.717 23.149-0.51 41.203 2.402 47.1 7.717l2.329 2.038 1.674 29.555 1.674 29.483 4.731 8.299c2.62 4.515 4.731 8.444 4.731 8.735 0 0.218-2.183-0.292-4.95-1.237-9.827-3.349-28.974-6.333-46.007-7.28-18.928-1.019-48.264 2.548-63.116 7.716-2.109 0.728-3.858 1.166-3.858 1.019z" />
<glyph unicode="&#xe67a;" d="M266.629 236.451l-0.877 2.417c-0.209-0.117-0.428-0.225-0.643-0.337l1.521-2.081zM273.115 241.635l-1.688 1.935c-0.156-0.188-0.327-0.357-0.49-0.538l2.179-1.398zM277.293 248.813l-2.279 1.196c-0.077-0.229-0.163-0.457-0.249-0.683l2.53-0.513zM278.591 257.015l-2.569 0.295c0.012-0.242 0.036-0.482 0.038-0.728l2.531 0.433zM276.844 265.134l-2.493-0.653c0.098-0.222 0.189-0.446 0.279-0.67l2.214 1.323zM242.889 237.995l1.767 1.855c-0.199 0.137-0.386 0.29-0.582 0.434l-1.185-2.29zM258.705 233.959l0.057 2.576c-0.24-0.034-0.473-0.083-0.717-0.108l0.661-2.469zM250.421 234.495l0.983 2.381c-0.237 0.054-0.471 0.117-0.702 0.179l-0.28-2.561zM244.656 239.85c1.821-1.25 3.862-2.194 6.043-2.795l1.124 10.322-7.167-7.528zM265.517 276.889l-1.402-2.16c0.221-0.1 0.438-0.21 0.658-0.317l0.745 2.476zM236.473 267.756l2.016-1.588c0.117 0.211 0.249 0.411 0.376 0.617l-2.393 0.971zM233.689 259.933l2.453-0.758c0.036 0.239 0.070 0.482 0.109 0.718l-2.562 0.039zM233.919 251.631l2.555 0.181c-0.054 0.233-0.117 0.464-0.165 0.7l-2.39-0.881zM272.281 272.071l-2.087-1.507c0.171-0.171 0.324-0.364 0.49-0.54l1.596 2.048zM237.122 243.971l2.32 1.094c-0.138 0.199-0.258 0.409-0.387 0.613l-1.934-1.707zM251.403 236.876c1.481-0.349 3.013-0.553 4.597-0.553 0.69 0 1.372 0.036 2.045 0.105l-2.685 10.051-3.958-9.602zM257.474 278.942l-0.531-2.531c0.243-0.012 0.486-0.018 0.728-0.037l-0.197 2.569zM249.225 277.947l0.416-2.538c0.231 0.077 0.458 0.152 0.691 0.222l-1.108 2.316zM241.895 274.042l1.302-2.21c0.186 0.154 0.389 0.293 0.581 0.442l-1.883 1.769zM265.753 238.867c1.957 1.091 3.701 2.508 5.183 4.166l-8.723 5.597 3.541-9.762zM262.094 255.478c0-3.365-2.728-6.094-6.094-6.094s-6.094 2.728-6.094 6.094c0 3.366 2.727 6.094 6.094 6.094s6.094-2.727 6.094-6.094zM236.473 251.813c0.519-2.209 1.401-4.274 2.582-6.137l7.786 6.873-10.368-0.737zM236.142 259.174c-0.126-0.913-0.218-1.839-0.218-2.789 0-1.325 0.138-2.617 0.383-3.872l9.757 3.603-9.924 3.059zM244.075 240.285l4.768 9.212-9.401-4.431c1.266-1.84 2.839-3.45 4.632-4.781zM256 228.59c15.329 0 27.805 12.469 27.805 27.792 0 15.332-12.473 27.809-27.805 27.809s-27.806-12.478-27.806-27.809c0-15.325 12.477-27.792 27.806-27.792zM256 279.476c12.731 0 23.091-10.36 23.091-23.091 0-12.729-10.36-23.082-23.091-23.082s-23.090 10.352-23.090 23.082c0 12.731 10.359 23.091 23.090 23.091zM238.488 266.168c-1.078-1.92-1.838-4.036-2.237-6.276l10.392-0.163-8.154 6.438zM331.445 140.25c-52.914 13.168-75.445-13.668-75.445-13.668-0.253-26.838 36.455-74.942 81.522-80.762 45.066-5.825 73.923 15.695 73.923 15.695s-27.088 65.572-80 78.734zM180.554 140.25c-52.913-13.163-79.999-78.735-79.999-78.735s28.859-21.521 73.921-15.695c45.065 5.82 81.774 53.925 81.523 80.762 0 0.001-22.532 26.837-75.445 13.668zM258.762 236.535c2.255 0.314 4.392 0.996 6.348 1.994l-6.123 8.379-0.225-10.374zM108.65 195.7h294.695l9.115 27.341h-43.284l8.476 49.017 11.294 65.279c0 0-29.815 58.521-132.289 58.521-124.562 0-133.601-58.521-133.601-58.521l19.77-114.298h-43.285l9.11-27.341zM256 288.37c17.637 0 31.986-14.348 31.986-31.99 0-17.625-14.348-31.971-31.986-31.971s-31.986 14.345-31.986 31.971c0 17.642 14.348 31.99 31.986 31.99zM276.022 257.31c-0.105 2.287-0.583 4.476-1.391 6.502l-8.91-5.321 10.302-1.181zM275.013 250.007c0.675 2.005 1.058 4.145 1.058 6.377 0 0.067-0.007 0.13-0.007 0.197l-10.24-1.751 9.195-4.822zM271.426 243.57c1.418 1.703 2.541 3.649 3.339 5.756l-10.167 2.068 6.829-7.823zM274.351 264.481c-0.909 2.053-2.156 3.918-3.666 5.542l-6.373-8.168 10.038 2.626zM270.195 270.563c-1.57 1.57-3.408 2.865-5.423 3.85l-2.995-9.927 8.416 6.077zM243.199 271.832c-1.713-1.421-3.171-3.135-4.334-5.047l9.616-3.904-5.28 8.951zM256.942 276.411c-0.315 0.016-0.625 0.048-0.942 0.048-1.97 0-3.869-0.298-5.667-0.827l4.483-9.372 2.124 10.15zM249.642 275.409c-2.138-0.717-4.111-1.787-5.863-3.136l7.556-7.107-1.694 10.243zM264.114 274.73c-1.998 0.886-4.168 1.454-6.445 1.644l0.795-10.345 5.65 8.702z" />
<glyph unicode="&#xf004;" d="M69.638 286.398q0 45.758 26.415 71.549t73.005 25.791q12.895 0 26.311-4.472t24.959-12.064 19.863-14.248 15.807-14.144q7.488 7.487 15.807 14.144t19.863 14.248 24.959 12.064 26.311 4.472q46.59 0 73.005-25.792t26.416-71.549q0-45.966-47.63-93.597l-129.58-124.796q-3.745-3.745-9.153-3.745t-9.153 3.745l-129.788 125.212q-2.079 1.664-5.72 5.408t-11.543 13.623-14.144 20.279-11.127 25.167-4.888 28.703z" />
<glyph unicode="&#xf00c;" d="M72.978 216.443q0 9.447 6.612 16.059l32.117 32.117q6.612 6.613 16.059 6.613t16.059-6.613l69.43-69.666 154.919 155.156q6.613 6.613 16.059 6.613t16.059-6.613l32.117-32.117q6.613-6.612 6.613-16.059t-6.613-16.059l-203.096-203.096q-6.613-6.613-16.059-6.613t-16.059 6.613l-117.606 117.606q-6.612 6.613-6.612 16.059z" />
<glyph unicode="&#xf00d;" d="M51.682 116.801q0 10.066 7.046 17.111l73.982 73.982-73.982 73.982q-7.046 7.046-7.046 17.112t7.046 17.112l34.222 34.222q7.046 7.046 17.112 7.046t17.112-7.046l73.982-73.982 73.982 73.982q7.046 7.046 17.111 7.046t17.111-7.046l34.222-34.222q7.046-7.046 7.046-17.112t-7.046-17.112l-73.982-73.982 73.982-73.982q7.046-7.046 7.046-17.111t-7.046-17.111l-34.222-34.222q-7.046-7.046-17.111-7.046t-17.111 7.046l-73.982 73.982-73.982-73.982q-7.046-7.046-17.112-7.046t-17.112 7.046l-34.222 34.222q-7.046 7.046-7.046 17.111z" horiz-adv-x="403" />
<glyph unicode="&#xf015;" d="M70.081 223.272q0.208 2.808 2.288 4.472l149.548 124.588q6.656 5.408 15.807 5.408t15.807-5.408l50.751-42.43v40.559q0 2.912 1.871 4.784t4.784 1.871h39.935q2.912 0 4.784-1.871t1.871-4.784v-84.861l45.55-37.856q2.079-1.664 2.288-4.472t-1.456-4.887l-12.896-15.392q-1.664-1.871-4.368-2.288h-0.623q-2.704 0-4.368 1.456l-143.931 120.012-143.932-120.012q-2.495-1.664-4.992-1.456-2.704 0.416-4.368 2.288l-12.895 15.392q-1.664 2.079-1.456 4.887zM117.92 104.196v99.837q0 0.208 0.104 0.623t0.104 0.623l119.596 98.588 119.596-98.588q0.208-0.416 0.208-1.248v-99.837q0-5.408-3.952-9.36t-9.36-3.952h-79.87v79.87h-53.247v-79.87h-79.87q-5.407 0-9.359 3.952t-3.952 9.36z" horiz-adv-x="476" />
<glyph unicode="&#xf023;" d="M32.781 99.545v131.776q0 9.152 6.406 15.557t15.557 6.406h7.321v43.925q0 42.095 30.199 72.293t72.294 30.199 72.293-30.199 30.199-72.293v-43.925h7.321q9.152 0 15.557-6.406t6.406-15.557v-131.776q0-9.152-6.406-15.557t-15.557-6.406h-219.627q-9.152 0-15.557 6.406t-6.406 15.557zM105.99 253.284h117.135v43.925q0 24.25-17.158 41.409t-41.409 17.158-41.409-17.158-17.158-41.409v-43.925z" horiz-adv-x="329" />
<glyph unicode="&#xf0eb;" d="M32.804 294.921q0 21.941 9.862 40.891t25.93 31.471 36.347 19.724 41.333 7.202 41.334-7.202 36.347-19.724 25.93-31.471 9.862-40.891q0-34.352-22.828-59.397-9.973-10.859-16.511-19.281t-13.187-21.166-7.536-23.825q10.416-6.206 10.416-18.173 0-8.2-5.541-14.183 5.541-5.985 5.541-14.183 0-11.524-9.973-17.952 2.881-5.098 2.881-10.416 0-10.195-6.982-15.735t-17.176-5.541q-4.433-9.752-13.298-15.514t-19.281-5.762-19.281 5.762-13.297 15.514q-10.195 0-17.176 5.541t-6.982 15.735q0 5.319 2.882 10.416-9.973 6.426-9.973 17.952 0 8.2 5.541 14.183-5.541 5.985-5.541 14.183 0 11.968 10.416 18.173-0.887 11.081-7.535 23.825t-13.187 21.166-16.511 19.281q-22.828 25.043-22.828 59.397zM61.172 294.921q0-22.384 15.071-39.893 2.216-2.439 6.76-7.314t6.76-7.314q28.369-33.91 31.249-66.046h50.531q2.881 32.137 31.25 66.046 2.216 2.439 6.76 7.314t6.76 7.314q15.071 17.508 15.071 39.893 0 15.957-7.646 29.698t-19.947 22.496-27.261 13.741-30.252 4.986-30.252-4.986-27.26-13.741-19.948-22.496-7.646-29.698zM139.185 323.289q0 2.882 2.106 4.987t4.987 2.106q11.081 0 22.052-3.546t19.281-11.968 8.311-19.947q0-2.882-2.106-4.987t-4.987-2.106-4.987 2.106-2.106 4.987q0 10.195-11.968 15.735t-23.492 5.541q-2.881 0-4.987 2.106t-2.106 4.986z" horiz-adv-x="293" />
<glyph unicode="&#xf104;" d="M12.857 205.714q0 3.714 2.857 6.572l133.143 133.143q2.857 2.857 6.571 2.857t6.572-2.857l14.286-14.285q2.857-2.857 2.857-6.572t-2.857-6.572l-112.285-112.286 112.285-112.286q2.857-2.857 2.857-6.572t-2.857-6.572l-14.286-14.286q-2.857-2.857-6.572-2.857t-6.572 2.857l-133.143 133.143q-2.857 2.857-2.857 6.572z" horiz-adv-x="183" />
<glyph unicode="&#xf105;" d="M3.715 86.857q0 3.714 2.857 6.572l112.285 112.286-112.285 112.286q-2.857 2.857-2.857 6.572t2.857 6.572l14.285 14.286q2.857 2.857 6.572 2.857t6.572-2.857l133.143-133.143q2.857-2.857 2.857-6.572t-2.857-6.572l-133.143-133.143q-2.857-2.857-6.572-2.857t-6.572 2.857l-14.286 14.286q-2.857 2.857-2.857 6.572z" horiz-adv-x="183" />
<glyph unicode="&#xf106;" d="M22 141.714q0 3.714 2.857 6.572l133.143 133.143q2.857 2.857 6.572 2.857t6.572-2.857l133.143-133.143q2.857-2.857 2.857-6.572t-2.857-6.572l-14.286-14.286q-2.857-2.857-6.572-2.857t-6.572 2.857l-112.286 112.286-112.285-112.286q-2.857-2.857-6.572-2.857t-6.572 2.857l-14.285 14.286q-2.857 2.857-2.857 6.572z" horiz-adv-x="329" />
<glyph unicode="&#xf107;" d="M22 269.714q0 3.714 2.857 6.572l14.285 14.286q2.857 2.857 6.572 2.857t6.572-2.857l112.285-112.286 112.285 112.286q2.857 2.857 6.572 2.857t6.572-2.857l14.286-14.286q2.857-2.857 2.857-6.572t-2.857-6.572l-133.143-133.143q-2.857-2.857-6.571-2.857t-6.572 2.857l-133.143 133.143q-2.857 2.857-2.857 6.571z" horiz-adv-x="329" />
<glyph unicode="&#xf121;" d="M71.487 209.817q0 2.882 2.216 5.098l103.28 103.279q2.216 2.216 5.097 2.216t5.097-2.216l11.081-11.081q2.216-2.216 2.216-5.098t-2.216-5.098l-87.1-87.099 87.1-87.099q2.216-2.216 2.216-5.098t-2.216-5.098l-11.081-11.081q-2.216-2.216-5.097-2.216t-5.097 2.216l-103.279 103.28q-2.216 2.216-2.216 5.098zM219.314 70.633l82.667 286.122q0.887 2.882 3.435 4.322t5.208 0.554l13.741-3.767q2.882-0.887 4.322-3.435t0.554-5.43l-82.668-286.123q-0.887-2.882-3.435-4.322t-5.208-0.554l-13.74 3.767q-2.881 0.887-4.321 3.435t-0.554 5.43zM348.080 117.618q0 2.882 2.216 5.098l87.099 87.1-87.1 87.1q-2.216 2.216-2.216 5.097t2.216 5.097l11.081 11.081q2.216 2.216 5.098 2.216t5.098-2.216l103.279-103.28q2.216-2.216 2.216-5.098t-2.216-5.098l-103.279-103.28q-2.216-2.216-5.098-2.216t-5.098 2.216l-11.081 11.081q-2.216 2.216-2.216 5.098z" horiz-adv-x="549" />
</font>
</defs>
</svg>
