<svg xmlns="http://www.w3.org/2000/svg" viewBox="250.655 197.718 885.612 285.472" enable-background="new 250.655 197.718 885.612 285.472"><path d="M412.757 230.44s-38.229 40.549-42.171 57.716c-.5 2.177-3.363 2.881-5.588 3.076-4.738.415-9.515 1.242-14.225 2.513-5.553 1.498-10.927 3.617-16.003 6.183-1.78.9-4.395 1.735-5.678.208-12.31-14.654-59.422-25.946-59.422-25.946-5.725-2.947-4.325-1.438-2.284 2.395 0 0 19.64 40.555 32.351 75.467 8.129 22.326 42.364 33.109 73.436 24.727 31.072-8.382 52.406-34.231 48.905-57.731-5.921-39.734-9.321-88.608-9.321-88.608zm-102.878 109.586c-1.584-5.872 6.784-13.492 17.641-17.404-.538 4.343-.635 9.144.191 12.217 2.237 8.323 5.789 14.524 8.782 18.062-12.069 1.578-24.223-4.013-26.614-12.875zm33.192 11.27c.862-5.027 1.074-12.867-.494-18.665-.903-3.339-3.44-7.78-6.025-11.562 10.18.767 21.547 9.241 21.495 13.693-.081 6.784-3.834 12.839-14.976 16.534zm25.714 2.564c.033.105.68.764.839 1.427.534 2.227-.1 2.933-1.183 3.225-1.083.292-2.141.044-2.738-2.167l-.16-1.551c-1.338.003-2.321-.262-2.786-1.854-.321-1.099 3.918-1.412 3.918-1.412s3.639-1.774 3.898-.696c.481 2.001-.797 2.379-1.788 3.028zm-4.017-21.063c-1.684-6.242 2.378-19.945 15.936-25.939-.706 4.691-1.432 11.327-.511 14.752 2.283 8.493 6.438 13.718 9.467 17.216-12.7 3.012-23.432-.618-24.892-6.029zm31.374 3.695c.788-5.036 1.382-12.781-.133-18.383-1.052-3.89-4.767-9.048-7.747-13.141 9.864-.612 20.964 4.637 22.224 9.614 1.542 6.093-4.256 16.769-14.344 21.91zM381.032 437.335c-2.738-16.494-7.088-25.746-8.67-34.68-2.877-16.245 3.314-34.366.569-34.53-3.753-.225-4.174 20.115-12.454 31.877-8.099 11.505-13.805 15.013-22.849 29.579-7.364 11.86-2.574 25.217 17.257 28.759 21.706 3.878 28.433-7.234 26.147-21.005zM347.383 463.178c-5.239 0-9.26 2.071-9.26 6.262 0 .429-.057.972-.077 2.479.026 1.552-.246 2.298-.246 3.913 0 2.62-.306 4.64 1.638 4.657 1.833.016 1.933-1.042 1.812-3.659-.04-.874.303-1.446.609-1.734.734.163 1.564.255 2.441.316.396.086.796.486.796 2.087 0 2.62.283 2.99 1.658 2.99s1.199-.428 1.257-3.047c.057-2.572 1.207-1.878 1.204-1.975.856-.035 1.658-.114 2.42-.222.493.083.74.847.692 1.949-.116 2.617.37 3.295 1.745 3.295s1.705-.857 1.705-3.477c0-.956.065-2.323.41-3.857.363-1.362.4-2.757.4-3.773 0-4.19-3.965-6.204-9.204-6.204zM373.037 463.178c5.199 0 9.189 2.071 9.189 6.262 0 .429.057.972.076 2.479-.026 1.552.244 2.298.244 3.913 0 2.62.304 4.64-1.626 4.657-1.819.016-1.918-1.042-1.798-3.659.04-.874-.3-1.446-.605-1.734-.728.163-1.552.255-2.422.316-.393.086-.79.486-.79 2.087 0 2.62-.281 2.99-1.646 2.99s-1.189-.428-1.247-3.047c-.057-2.572-1.197-1.878-1.194-1.975-.85-.035-1.645-.114-2.401-.222-.489.083-.735.847-.686 1.949.115 2.617-.367 3.295-1.732 3.295s-1.692-.857-1.692-3.477c0-.956-.065-2.323-.406-3.857-.361-1.362-.397-2.757-.397-3.773 0-4.19 3.935-6.204 9.133-6.204z"/><path stroke="#000" stroke-width="3.061" stroke-linecap="round" stroke-miterlimit="10" d="M348.939 359.557c-.348.508-11.649-2.35-41.726 18.83-10.309 7.259-16.592 13.943-9.715 20.135M337.307 357.488c-6.426-1.91-13.883 5.389-35.111 15.482-28.313 13.461-30.02 23.714-22.729 29.799M323.892 354.766c-5.981-1.778-15.911 6.879-20.979 9.412-13.017 6.504-48.151 13.662-43.095 35.041" fill="none"/><path stroke="#000" stroke-width="2.92" stroke-linecap="round" stroke-miterlimit="10" d="M387.656 348.565c.525.253 8.351-7.493 42.901-4.347 11.842 1.078 20.137 3.6 17.497 11.99M396.127 341.312c4.314-4.64 13.856-2.169 35.927-3.957 29.437-2.385 35.712 5.265 32.685 13.764M405.737 332.67c4.314-4.64 14.297.743 35.927-3.957 14.609-3.174 33.308-3.251 37.358 10.109" fill="none"/><path stroke="#000" stroke-width="2.887" stroke-linecap="round" stroke-miterlimit="10" d="M358.419 442.867l-10.275 1.075-3.544.367c-1.369.419-2.707.902-4.023 1.435-1.367.899-2.757 1.802-4.192 2.707-20.194 12.732-41.123 37.796-67.813 25.122-14.361-6.819-21.462-28.261-12.515-41.998 7.18-11.023 27.37-14.063 35.118-2.116 10.844 12.882 1.325 32.748-15.179 32.251-7.785-.234-12.568-8.87-12.257-15.947.343-7.816 11.634-15.789 17.179-7.058" fill="none"/><g fill="#414954"><path d="M442.265 480.204h-55.973v-276.891h55.973v142.177l62.32-66.423h70.525l-76.491 81.35 79.482 119.786h-66.423l-51.119-76.872-18.289 19.03v57.842h-.005zM594.468 253.876c-6.347-6.342-9.518-14.118-9.518-23.323 0-9.2 3.171-16.981 9.518-23.323 6.342-6.342 14.112-9.512 23.318-9.512 9.2 0 16.981 3.171 23.323 9.512 6.342 6.347 9.518 14.123 9.518 23.323 0 9.205-3.176 16.981-9.518 23.323-6.342 6.342-14.123 9.518-23.323 9.518-9.205 0-16.976-3.171-23.318-9.518zm51.305 226.328h-55.973v-200.766h55.973v200.766zM745.037 319.743v89.931c0 7.718 1.985 13.752 5.971 18.098 3.975 4.357 8.708 6.532 14.181 6.532 10.449 0 19.279-4.722 26.494-14.181l20.899 39.182c-17.416 15.923-35.768 23.884-55.042 23.884-19.284 0-35.583-6.342-48.88-19.03-13.318-12.688-19.962-29.977-19.962-51.871v-92.546h-23.508v-40.299h23.508v-60.081h56.349v60.081h48.509v40.299h-48.519v.001zM872.703 319.743v89.931c0 7.718 1.985 13.752 5.971 18.098 3.975 4.357 8.708 6.532 14.181 6.532 10.449 0 19.279-4.722 26.494-14.181l20.899 39.182c-17.415 15.923-35.768 23.884-55.042 23.884-19.284 0-35.583-6.342-48.88-19.03-13.318-12.688-19.962-29.977-19.962-51.871v-92.546h-23.508v-40.299h23.508v-60.081h56.349v60.081h48.509v40.299h-48.519v.001zM1004.544 368.252v111.946h-55.979v-200.76h55.973v22.386c16.913-17.167 35.948-25.747 57.095-25.747 21.142 0 38.87 7.464 53.178 22.391 14.298 14.928 21.454 34.831 21.454 59.705v122.025h-55.973v-113.438c0-30.845-11.323-46.27-33.958-46.27-11.19 0-20.962 4.044-29.289 12.127-8.335 8.088-12.501 19.961-12.501 35.635z"/></g></svg>