<svg xmlns="http://www.w3.org/2000/svg" viewBox="0 0 241.807 89.469" enable-background="new 0 0 241.807 89.469"><path d="M83.549 59.886h-10.574v-52.308h10.574v26.859l11.773-12.548h13.323l-14.45 15.368 15.015 22.629h-12.548l-9.657-14.522-3.455 3.595v10.927zM116.647 17.13c-1.199-1.198-1.798-2.667-1.798-4.406 0-1.738.599-3.208 1.798-4.406 1.198-1.198 2.666-1.797 4.405-1.797 1.738 0 3.208.599 4.406 1.797 1.198 1.199 1.798 2.668 1.798 4.406 0 1.739-.6 3.208-1.798 4.406s-2.668 1.798-4.406 1.798c-1.739 0-3.207-.599-4.405-1.798zm9.692 42.756h-10.574v-37.927h10.574v37.927zM149.814 29.573v16.989c0 1.458.375 2.598 1.128 3.419.751.823 1.645 1.234 2.679 1.234 1.974 0 3.642-.892 5.005-2.679l3.948 7.402c-3.29 3.008-6.757 4.512-10.398 4.512-3.643 0-6.722-1.198-9.234-3.595-2.516-2.397-3.771-5.663-3.771-9.799v-17.483h-4.441v-7.613h4.441v-11.35h10.645v11.35h9.164v7.613h-9.166zM181.677 29.573v16.989c0 1.458.375 2.598 1.128 3.419.751.823 1.645 1.234 2.679 1.234 1.974 0 3.642-.892 5.005-2.679l3.948 7.402c-3.29 3.008-6.757 4.512-10.398 4.512-3.643 0-6.722-1.198-9.234-3.595-2.516-2.397-3.771-5.663-3.771-9.799v-17.483h-4.441v-7.613h4.441v-11.35h10.645v11.35h9.164v7.613h-9.166zM211.495 38.737v21.148h-10.575v-37.926h10.574v4.229c3.195-3.243 6.791-4.864 10.786-4.864 3.994 0 7.343 1.41 10.046 4.23 2.701 2.82 4.053 6.58 4.053 11.279v23.052h-10.574v-21.43c0-5.827-2.139-8.741-6.415-8.741-2.114 0-3.96.764-5.533 2.291-1.575 1.528-2.362 3.771-2.362 6.732zM52.511 8.051s-12.975 7.979-15.238 12.229c-.287.539-1.093.521-1.694.414-1.28-.228-2.6-.35-3.933-.35-1.572 0-3.141.177-4.663.492-.534.111-1.283.145-1.513-.349-2.205-4.743-13.834-11.077-13.834-11.077-1.301-1.185-1.039-.687-.773.469 0 0 2.296 12.101 3.165 22.219.556 6.471 8.823 11.754 17.619 11.754s16.267-5.303 17.016-11.754c1.266-10.906 3.848-24.047 3.848-24.047zm-34.951 21.596c0-1.663 2.751-3.077 5.895-3.337-.451 1.108-.819 2.368-.819 3.238-.002 2.356.494 4.245 1.032 5.392-3.299-.443-6.108-2.784-6.108-5.293zm7.957 5.337c.585-1.265 1.2-3.319 1.198-4.961-.001-.945-.354-2.298-.767-3.48 2.632.927 5.028 3.973 4.698 5.144-.504 1.785-1.926 3.115-5.129 3.297zm6.603 2.508c.001.03.125.25.12.436-.017.626-.235.767-.542.767-.307 0-.568-.141-.568-.767l.068-.421c-.353-.095-.594-.234-.603-.688-.007-.313 1.135-.094 1.135-.094s1.087-.209 1.078.094c-.016.563-.38.572-.688.673zm.44-5.845c0-1.767 2.048-5.094 6.052-5.711-.52 1.188-1.184 2.887-1.185 3.857-.002 2.404.722 4.079 1.273 5.217-3.567-.109-6.14-1.831-6.14-3.363zm8.016 3.209c.567-1.273 1.275-3.275 1.273-4.861-.001-1.102-.614-2.727-1.109-4.019 2.647.541 5.202 2.716 5.18 4.119-.026 1.718-2.316 4.122-5.344 4.761zM37.413 61.231c-1.529-4.307-3.145-6.587-4-8.915-1.555-4.233-.76-9.406-1.507-9.318-1.021.12-.156 5.613-1.819 9.176-1.626 3.485-2.993 4.703-4.726 9.057-1.411 3.545.519 6.909 6.026 6.909 6.027 0 7.303-3.313 6.026-6.909zM27.946 68.72c-1.432 0-2.531.566-2.531 1.712l-.021.678-.067 1.07c0 .716-.084 1.268.448 1.273.501.004.528-.285.495-1-.011-.239.083-.395.167-.474.201.044.428.07.667.086.108.024.218.133.218.57 0 .716.077.817.453.817s.328-.117.344-.833c.016-.703.33-.513.329-.54.234-.01.453-.031.661-.061.135.023.202.232.189.533-.032.715.101.901.477.901s.466-.234.466-.95c0-.261.018-.635.112-1.054.099-.372.109-.754.109-1.031 0-1.147-1.084-1.697-2.516-1.697zM34.958 68.72c1.421 0 2.512.566 2.512 1.712l.021.678.067 1.07c0 .716.083 1.268-.444 1.273-.497.004-.524-.285-.491-1 .011-.239-.082-.395-.165-.474-.199.044-.424.07-.662.086-.107.024-.216.133-.216.57 0 .716-.077.817-.45.817s-.325-.117-.341-.833c-.016-.703-.327-.513-.326-.54-.232-.01-.45-.031-.656-.061-.134.023-.201.232-.188.533.031.715-.1.901-.473.901s-.462-.234-.462-.95c0-.261-.018-.635-.111-1.054-.099-.372-.109-.754-.109-1.031-.002-1.147 1.073-1.697 2.494-1.697z"/><path stroke="#000" stroke-width=".837" stroke-linecap="round" stroke-miterlimit="10" d="M26.761 37.659c-.128.109-2.907-1.449-12.352 1.999-3.237 1.182-5.371 2.498-3.997 4.622M23.839 36.285c-1.56-.962-4.047.434-10.368 1.586-8.43 1.537-9.611 4.121-8.12 6.246M20.492 34.611c-1.452-.895-4.689.683-6.206.99-3.898.79-13.68.177-13.867 6.179" fill="none"/><path stroke="#000" stroke-width=".798" stroke-linecap="round" stroke-miterlimit="10" d="M37.761 37.514c.121.104 2.737-1.383 11.631 1.907 3.048 1.128 5.058 2.384 3.764 4.41M40.513 36.203c1.469-.917 3.811.414 9.763 1.513 7.938 1.466 9.05 3.932 7.646 5.959M43.664 34.607c1.469-.917 3.72 1.214 9.763 1.513 4.081.202 9.022 1.513 9.139 5.327" fill="none"/><path stroke="#000" stroke-width=".789" stroke-linecap="round" stroke-miterlimit="10" d="M31.258 63.149l-2.824-.021-.974-.008c-.385.072-.763.163-1.137.267-.399.203-.804.406-1.221.608-5.873 2.843-12.322 9.014-19.186 4.758-3.693-2.29-4.969-8.331-2.12-11.789 2.286-2.775 7.863-2.986 9.604.495 2.553 3.83-.638 8.936-5.106 8.298-2.108-.301-3.144-2.792-2.844-4.705.331-2.113 3.641-3.934 4.881-1.394" fill="none"/><g fill="#666"><path d="M76.081 69.568c.713 0 1.323.247 1.83.74.506.493.76 1.15.76 1.97 0 .82-.252 1.487-.755 2-.504.514-1.09.771-1.76.771s-1.272-.293-1.806-.88v.8h-1.12v-7.42h1.12v3.03c.44-.674 1.017-1.011 1.731-1.011zm-1.75 2.75c0 .507.153.922.46 1.245s.68.485 1.12.485c.439 0 .823-.16 1.149-.48.327-.319.49-.734.49-1.244 0-.511-.16-.934-.479-1.271-.32-.337-.704-.505-1.15-.505s-.823.168-1.13.505-.46.759-.46 1.265zM83.59 72.528v-2.88h1.12v5.32h-1.12v-.97c-.181.326-.429.583-.745.77s-.658.28-1.025.28c-.6 0-1.085-.184-1.455-.55-.37-.367-.555-.896-.555-1.59v-3.261h1.12v2.92c0 .98.406 1.471 1.22 1.471.387 0 .724-.129 1.01-.386.287-.255.43-.63.43-1.124zM86.32 68.589c-.14-.14-.21-.307-.21-.5s.07-.36.21-.5.307-.21.5-.21.36.07.5.21.21.307.21.5-.07.36-.21.5-.307.21-.5.21-.361-.07-.5-.21zm1.05 6.38h-1.12v-5.32h1.12v5.32zM90.03 74.969h-1.12v-7.42h1.12v7.42zM91.98 74.289c-.5-.507-.75-1.174-.75-2 0-.827.257-1.487.771-1.98.513-.493 1.125-.74 1.835-.74s1.281.301 1.715.9v-2.92h1.12v7.42h-1.12v-.8c-.413.587-1.017.88-1.81.88-.674 0-1.261-.253-1.761-.76zm.37-1.955c0 .51.163.925.49 1.245.326.319.71.479 1.15.479.439 0 .812-.161 1.119-.484.307-.324.46-.738.46-1.245s-.153-.931-.46-1.271-.683-.51-1.13-.51c-.446 0-.83.17-1.149.51-.32.34-.48.766-.48 1.276zM102.25 69.209v.439h1.399v.9h-1.399v4.42h-1.12v-4.42h-.67v-.9h.67v-.41c0-.56.168-1.005.505-1.335.336-.329.743-.494 1.22-.494s.912.177 1.305.529l-.46.79c-.22-.233-.449-.35-.689-.35s-.427.075-.561.225c-.133.151-.2.352-.2.606zM107.439 70.699c-.553 0-.97.18-1.25.539-.279.36-.42.844-.42 1.45v2.28h-1.12v-5.32h1.12v1.07c.181-.333.426-.606.735-.82.31-.213.639-.323.985-.33l.01 1.131h-.06zM112.889 74.254c-.533.53-1.2.795-2 .795s-1.467-.265-2-.795-.8-1.179-.8-1.945.267-1.415.8-1.945c.533-.529 1.2-.795 2-.795s1.467.266 2 .795c.533.53.8 1.179.8 1.945s-.267 1.415-.8 1.945zm-3.205-.691c.316.323.719.485 1.205.485s.889-.162 1.205-.485.476-.741.476-1.255c0-.513-.159-.932-.476-1.255s-.719-.485-1.205-.485-.889.162-1.205.485-.475.742-.475 1.255c0 .514.159.932.475 1.255zM115.999 72.089v2.88h-1.12v-5.32h1.12v.971c.181-.327.429-.584.745-.771s.658-.28 1.025-.28c.6 0 1.085.184 1.455.551.37.366.555.896.555 1.59v3.26h-1.12v-2.92c0-.98-.406-1.47-1.22-1.47-.387 0-.724.128-1.01.385-.286.256-.43.631-.43 1.124zM122.57 70.549v2.7c0 .253.066.455.199.604.134.15.32.226.561.226s.47-.117.689-.351l.46.79c-.393.354-.828.53-1.305.53s-.884-.165-1.22-.495c-.337-.33-.505-.775-.505-1.335v-2.67h-.67v-.9h.67v-1.67h1.12v1.67h1.399v.9h-1.398zM130.24 72.799h-4.17c.026.387.203.698.53.935.326.237.7.355 1.12.355.666 0 1.173-.21 1.52-.63l.641.7c-.574.593-1.32.89-2.24.89-.747 0-1.382-.248-1.905-.745-.523-.496-.785-1.163-.785-2s.267-1.502.8-1.995c.534-.493 1.162-.74 1.886-.74.723 0 1.338.219 1.845.655s.76 1.038.76 1.805v.77zm-4.17-.88h3.05c0-.446-.14-.79-.42-1.03-.279-.24-.625-.36-1.035-.36-.409 0-.778.125-1.104.375-.328.249-.491.588-.491 1.015zM132.509 72.089v2.88h-1.12v-5.32h1.12v.971c.181-.327.429-.584.745-.771s.658-.28 1.025-.28c.6 0 1.085.184 1.455.551.37.366.555.896.555 1.59v3.26h-1.12v-2.92c0-.98-.406-1.47-1.22-1.47-.387 0-.724.128-1.01.385-.286.256-.43.631-.43 1.124zM138.179 74.289c-.5-.507-.75-1.174-.75-2 0-.827.257-1.487.771-1.98.513-.493 1.125-.74 1.835-.74s1.281.301 1.715.9v-2.92h1.12v7.42h-1.12v-.8c-.413.587-1.017.88-1.81.88-.674 0-1.261-.253-1.761-.76zm.37-1.955c0 .51.163.925.49 1.245.326.319.71.479 1.15.479.439 0 .812-.161 1.119-.484.307-.324.46-.738.46-1.245s-.153-.931-.46-1.271-.683-.51-1.13-.51c-.446 0-.83.17-1.149.51-.32.34-.48.766-.48 1.276zM148.199 73.379c0 .507-.183.911-.55 1.215-.366.304-.837.455-1.41.455-.387 0-.788-.07-1.205-.21-.416-.14-.784-.337-1.104-.59l.54-.87c.62.467 1.22.7 1.8.7.253 0 .453-.059.6-.176.147-.116.221-.265.221-.444 0-.267-.354-.507-1.061-.721l-.12-.039c-1.106-.301-1.659-.801-1.659-1.5 0-.494.191-.889.574-1.186.384-.297.882-.445 1.495-.445s1.193.181 1.74.54l-.42.83c-.434-.286-.903-.43-1.41-.43-.267 0-.483.049-.649.145-.167.097-.25.242-.25.436 0 .173.086.3.26.38.12.06.288.117.505.17.217.054.408.106.575.16.166.054.328.113.484.18.157.067.325.16.505.28.359.24.539.613.539 1.12zM154.539 74.969h-1.28l-1.84-5.32h1.16l1.32 4.021 1.32-4.021h1.159l1.32 4.021 1.32-4.021h1.16l-1.841 5.32h-1.279l-1.261-3.64-1.258 3.64zM161.16 68.589c-.14-.14-.21-.307-.21-.5s.07-.36.21-.5.307-.21.5-.21.36.07.5.21.21.307.21.5-.07.36-.21.5-.307.21-.5.21-.361-.07-.5-.21zm1.049 6.38h-1.12v-5.32h1.12v5.32zM165.129 70.549v2.7c0 .253.066.455.199.604.134.15.32.226.561.226s.47-.117.689-.351l.46.79c-.393.354-.828.53-1.305.53s-.884-.165-1.22-.495c-.337-.33-.505-.775-.505-1.335v-2.67h-.67v-.9h.67v-1.67h1.12v1.67h1.399v.9h-1.398zM168.969 72.089v2.88h-1.12v-7.41h1.12v3.061c.16-.327.402-.584.726-.771s.671-.28 1.045-.28c.6 0 1.085.184 1.455.551.37.366.555.896.555 1.59v3.26h-1.12v-2.92c0-.98-.406-1.47-1.22-1.47-.387 0-.724.128-1.01.385-.287.256-.431.631-.431 1.124zM178.008 72.089v2.88h-1.12v-5.32h1.12v.971c.16-.327.402-.584.726-.771s.671-.28 1.045-.28c.84 0 1.41.347 1.71 1.04.526-.693 1.184-1.04 1.97-1.04.601 0 1.085.184 1.455.551.37.366.555.896.555 1.59v3.26h-1.12v-2.92c0-.98-.406-1.47-1.22-1.47-.38 0-.712.121-.995.364-.283.244-.432.599-.444 1.065v2.96h-1.12v-2.92c0-.507-.09-.878-.271-1.115-.18-.236-.463-.354-.85-.354s-.724.128-1.01.385c-.287.256-.431.631-.431 1.124zM191.399 74.254c-.533.53-1.2.795-2 .795s-1.467-.265-2-.795-.8-1.179-.8-1.945.267-1.415.8-1.945c.533-.529 1.2-.795 2-.795s1.467.266 2 .795c.533.53.8 1.179.8 1.945s-.267 1.415-.8 1.945zm-3.205-.691c.316.323.719.485 1.205.485s.889-.162 1.205-.485.476-.741.476-1.255c0-.513-.159-.932-.476-1.255s-.719-.485-1.205-.485-.889.162-1.205.485-.475.742-.475 1.255c0 .514.158.932.475 1.255zM196.178 70.699c-.553 0-.97.18-1.25.539-.279.36-.42.844-.42 1.45v2.28h-1.12v-5.32h1.12v1.07c.181-.333.426-.606.735-.82.31-.213.639-.323.985-.33l.01 1.131h-.06zM202.228 72.799h-4.17c.026.387.203.698.53.935.326.237.7.355 1.12.355.666 0 1.173-.21 1.52-.63l.641.7c-.574.593-1.32.89-2.24.89-.747 0-1.382-.248-1.905-.745-.523-.496-.785-1.163-.785-2s.267-1.502.8-1.995c.534-.493 1.162-.74 1.886-.74.723 0 1.338.219 1.845.655s.76 1.038.76 1.805v.77zm-4.17-.88h3.05c0-.446-.14-.79-.42-1.03-.279-.24-.625-.36-1.035-.36-.409 0-.778.125-1.104.375-.328.249-.491.588-.491 1.015zM207.159 72.089v2.88h-1.12v-5.32h1.12v.971c.16-.327.402-.584.726-.771s.671-.28 1.045-.28c.84 0 1.41.347 1.71 1.04.526-.693 1.184-1.04 1.97-1.04.601 0 1.085.184 1.455.551.37.366.555.896.555 1.59v3.26h-1.12v-2.92c0-.98-.406-1.47-1.22-1.47-.38 0-.712.121-.995.364-.283.244-.432.599-.444 1.065v2.96h-1.12v-2.92c0-.507-.09-.878-.271-1.115-.18-.236-.463-.354-.85-.354s-.724.128-1.01.385c-.288.256-.431.631-.431 1.124zM221.048 72.799h-4.17c.026.387.203.698.53.935.326.237.7.355 1.12.355.666 0 1.173-.21 1.52-.63l.641.7c-.574.593-1.32.89-2.24.89-.747 0-1.382-.248-1.905-.745-.523-.496-.785-1.163-.785-2s.267-1.502.8-1.995c.534-.493 1.162-.74 1.886-.74.723 0 1.338.219 1.845.655s.76 1.038.76 1.805v.77zm-4.17-.88h3.05c0-.446-.14-.79-.42-1.03-.279-.24-.625-.36-1.035-.36-.409 0-.778.125-1.104.375-.328.249-.491.588-.491 1.015zM226.648 74.254c-.533.53-1.2.795-2 .795s-1.467-.265-2-.795-.8-1.179-.8-1.945.267-1.415.8-1.945c.533-.529 1.2-.795 2-.795s1.467.266 2 .795c.533.53.8 1.179.8 1.945s-.267 1.415-.8 1.945zm-3.205-.691c.316.323.719.485 1.205.485s.889-.162 1.205-.485.476-.741.476-1.255c0-.513-.159-.932-.476-1.255s-.719-.485-1.205-.485-.889.162-1.205.485-.475.742-.475 1.255c0 .514.158.932.475 1.255zM231.058 74.969h-1.28l-1.84-5.32h1.16l1.32 4.021 1.32-4.021h1.159l1.32 4.021 1.32-4.021h1.16l-1.841 5.32h-1.279l-1.261-3.64-1.258 3.64z"/></g></svg>