<svg xmlns="http://www.w3.org/2000/svg" viewBox="0 0 62.965 65.4" enable-background="new 0 0 62.965 65.4"><text transform="translate(67.97 51.834)" font-family="'Montserrat-Bold'" font-size="70.495">kittn</text><path d="M52.511 0s-12.975 7.979-15.238 12.229c-.287.539-1.093.521-1.694.414-1.28-.228-2.6-.35-3.933-.35-1.572 0-3.141.177-4.663.492-.534.111-1.283.145-1.513-.349-2.205-4.743-13.834-11.077-13.834-11.077-1.301-1.185-1.039-.687-.773.469 0 0 2.296 12.101 3.165 22.219.555 6.47 8.822 11.753 17.619 11.753s16.267-5.303 17.016-11.754c1.266-10.906 3.848-24.046 3.848-24.046zm-34.951 21.596c0-1.663 2.751-3.077 5.895-3.337-.451 1.108-.819 2.368-.819 3.238-.002 2.356.494 4.245 1.032 5.392-3.299-.444-6.108-2.784-6.108-5.293zm7.957 5.337c.585-1.265 1.2-3.319 1.198-4.961-.001-.945-.354-2.298-.767-3.48 2.632.927 5.028 3.973 4.698 5.144-.504 1.784-1.926 3.115-5.129 3.297zm6.603 2.507c.001.03.125.25.12.436-.017.626-.235.767-.542.767-.307 0-.568-.141-.568-.767l.068-.421c-.353-.095-.594-.234-.603-.688-.007-.313 1.135-.094 1.135-.094s1.087-.209 1.078.094c-.016.564-.38.573-.688.673zm.44-5.844c0-1.767 2.048-5.094 6.052-5.711-.52 1.188-1.184 2.887-1.185 3.857-.002 2.404.722 4.079 1.273 5.217-3.567-.109-6.14-1.831-6.14-3.363zm8.016 3.208c.567-1.273 1.275-3.275 1.273-4.861-.001-1.102-.614-2.727-1.109-4.019 2.647.541 5.202 2.716 5.18 4.119-.026 1.718-2.316 4.123-5.344 4.761zM37.413 53.18c-1.529-4.307-3.145-6.587-4-8.915-1.555-4.233-.76-9.406-1.507-9.318-1.021.12-.156 5.613-1.819 9.176-1.626 3.485-2.993 4.703-4.726 9.057-1.411 3.545.519 6.909 6.026 6.909 6.027 0 7.303-3.313 6.026-6.909zM27.946 60.668c-1.432 0-2.531.566-2.531 1.712l-.021.678-.067 1.07c0 .716-.084 1.268.448 1.273.501.004.528-.285.495-1-.011-.239.083-.395.167-.474.201.044.428.07.667.086.108.024.218.133.218.57 0 .716.077.817.453.817s.328-.117.344-.833c.016-.703.33-.513.329-.54.234-.01.453-.031.661-.061.135.023.202.232.189.533-.032.715.101.901.477.901s.466-.234.466-.95c0-.261.018-.635.112-1.054.099-.372.109-.754.109-1.031 0-1.146-1.084-1.697-2.516-1.697zM34.958 60.668c1.421 0 2.512.566 2.512 1.712l.021.678.067 1.07c0 .716.083 1.268-.444 1.273-.497.004-.524-.285-.491-1 .011-.239-.082-.395-.165-.474-.199.044-.424.07-.662.086-.107.024-.216.133-.216.57 0 .716-.077.817-.45.817s-.325-.117-.341-.833c-.016-.703-.327-.513-.326-.54-.232-.01-.45-.031-.656-.061-.134.023-.201.232-.188.533.031.715-.1.901-.473.901s-.462-.234-.462-.95c0-.261-.018-.635-.111-1.054-.099-.372-.109-.754-.109-1.031-.002-1.146 1.073-1.697 2.494-1.697z"/><path stroke="#000" stroke-width=".837" stroke-linecap="round" stroke-miterlimit="10" d="M26.761 29.607c-.128.109-2.907-1.449-12.352 1.999-3.237 1.182-5.371 2.498-3.997 4.622M23.839 28.233c-1.56-.962-4.047.434-10.368 1.586-8.43 1.537-9.611 4.121-8.12 6.246M20.492 26.56c-1.452-.895-4.689.683-6.206.99-3.898.79-13.68.177-13.867 6.179" fill="none"/><path stroke="#000" stroke-width=".798" stroke-linecap="round" stroke-miterlimit="10" d="M37.761 29.463c.121.104 2.737-1.383 11.631 1.907 3.048 1.128 5.058 2.384 3.764 4.41M40.513 28.152c1.469-.917 3.811.414 9.763 1.513 7.938 1.466 9.05 3.932 7.646 5.959M43.664 26.555c1.469-.917 3.72 1.214 9.763 1.513 4.081.202 9.022 1.513 9.139 5.327" fill="none"/><path stroke="#000" stroke-width=".789" stroke-linecap="round" stroke-miterlimit="10" d="M31.258 55.097l-2.824-.021-.974-.008c-.385.072-.763.163-1.137.267-.399.203-.804.406-1.221.608-5.873 2.843-12.322 9.014-19.186 4.758-3.693-2.29-4.969-8.331-2.12-11.789 2.286-2.775 7.863-2.986 9.604.495 2.553 3.83-.638 8.936-5.106 8.298-2.107-.301-3.143-2.792-2.843-4.705.331-2.113 3.641-3.934 4.881-1.394" fill="none"/><text transform="translate(72.42 66.917)" fill="#666" font-family="'Montserrat-Regular'" font-size="10">build frontends with more meow</text></svg>