<?xml version="1.0" encoding="UTF-8" standalone="no"?>
<svg width="320px" height="103px" viewBox="0 0 320 103" version="1.1" xmlns="http://www.w3.org/2000/svg" xmlns:xlink="http://www.w3.org/1999/xlink" xmlns:sketch="http://www.bohemiancoding.com/sketch/ns">
    <!-- Generator: Sketch 3.3 (11970) - http://www.bohemiancoding.com/sketch -->
    <title>Artboard</title>
    <desc>Created with Sketch.</desc>
    <defs></defs>
    <g id="Page-1" stroke="none" stroke-width="1" fill="none" fill-rule="evenodd" sketch:type="MSPage">
        <g id="Artboard" sketch:type="MSArtboardGroup">
            <g id="kittn-+-Group-Copy-4-+-cat2-copy-2-+-build-frontends-with-Copy" sketch:type="MSLayerGroup" transform="translate(9.000000, 6.000000)">
                <g id="kittn-+-Group-Copy-4-+-cat2-copy-2" sketch:type="MSShapeGroup">
                    <g id="kittn-+-Group-Copy-4" transform="translate(105.177686, 0.000000)" fill="#000000">
                        <path d="M91.9719542,32.1356849 L91.9719542,55.5404061 C91.9719542,57.54746 92.4911008,59.1174706 93.5294094,60.2504849 C94.5677181,61.3834992 95.8006911,61.9499978 97.2283655,61.9499978 C99.9539257,61.9499978 102.257638,60.7198865 104.139573,58.2596268 L109.590666,68.4567045 C105.048066,72.6002997 100.262184,74.6720662 95.232876,74.6720662 C90.2035685,74.6720662 85.9530563,73.0211273 82.4812117,69.7191999 C79.0093672,66.4172725 77.273471,61.9176546 77.273471,56.2202113 L77.273471,32.1356849 L71.1409912,32.1356849 L71.1409912,21.6472621 L77.273471,21.6472621 L77.273471,6.01174296 L91.9719542,6.01174296 L91.9719542,21.6472621 L104.626278,21.6472621 C104.626278,25.3686514 104.626277,32.1356857 104.626277,32.1356857 L91.9719542,32.1356849 Z" id="Path"></path>
                        <path d="M123.942553,32.1356849 L123.942553,55.5404061 C123.942553,57.54746 124.4617,59.1174706 125.500008,60.2504849 C126.538317,61.3834992 127.77129,61.9499978 129.198964,61.9499978 C131.924524,61.9499978 134.228237,60.7198865 136.110172,58.2596268 L141.561265,68.4567045 C137.018664,72.6002997 132.232782,74.6720662 127.203475,74.6720662 C122.174167,74.6720662 117.923655,73.0211273 114.451811,69.7191999 C110.979966,66.4172725 109.24407,61.9176546 109.24407,56.2202113 L109.24407,32.1356849 L103.11159,32.1356849 L103.11159,21.6472621 L109.24407,21.6472621 L109.24407,6.01174296 L123.942553,6.01174296 L123.942553,21.6472621 L136.596876,21.6472621 L136.596876,32.1356849 L123.942553,32.1356849 Z" id="Path"></path>
                        <path d="M15.0229531,73.895146 L0.421810778,73.895146 L0.421810778,1.83579685 L15.0229531,1.83579685 L15.0229531,38.8366217 L31.2788915,21.5501471 L49.6763309,21.5501471 L29.7214364,42.7212227 L50.4550585,73.895146 L33.1283696,73.895146 L19.7926596,53.8894507 L15.0229531,58.842317 L15.0229531,73.895146 Z" id="kittn"></path>
                        <path d="M67.1126792,73.895146 L52.5115369,73.895146 L52.5115369,21.6472621 L67.1126792,21.6472621 L67.1126792,73.895146 Z" id="Path"></path>
                        <path d="M51.2461046,8.92519374 C51.2461046,6.52967779 52.0734944,4.50646832 53.7282988,2.85550462 C55.3831032,1.20454093 57.4110193,0.379071468 59.8121081,0.379071468 C62.2131968,0.379071468 64.241113,1.20454093 65.8959174,2.85550462 C67.5507218,4.50646832 68.3781116,6.52967779 68.3781116,8.92519374 C68.3781116,11.3207097 67.5507218,13.3439192 65.8959174,14.9948828 C64.241113,16.6458465 62.2131968,17.471316 59.8121081,17.471316 C57.4110193,17.471316 55.3831032,16.6458465 53.7282988,14.9948828 C52.0734944,13.3439192 51.2461046,11.3207097 51.2461046,8.92519374 L51.2461046,8.92519374 Z" id="Path"></path>
                        <path d="M159.798638,44.7606382 L159.798638,73.895146 L145.197496,73.895146 L145.197496,21.6472621 L159.798638,21.6472621 L159.798638,27.4741637 C164.21145,23.0068501 169.175788,20.7732269 174.691803,20.7732269 C180.207818,20.7732269 184.831467,22.715508 188.562888,26.6001284 C192.29431,30.4847489 194.159993,35.6641651 194.159993,42.1385326 L194.159993,73.895146 L179.558851,73.895146 L179.558851,44.3721781 C179.558851,36.3439625 176.606205,32.3299149 170.700824,32.3299149 C167.780581,32.3299149 165.233519,33.3819839 163.05956,35.4861533 C160.885601,37.5903227 159.798638,40.6817868 159.798638,44.7606382 L159.798638,44.7606382 Z" id="Path"></path>
                    </g>
                    <g id="cat2-copy-2" transform="translate(0.000000, 25.000251)">
                        <g id="head" transform="translate(13.662630, 0.025877)">
                            <path d="M35.5176638,6.12493557 C32.3545006,7.94149334 29.3578008,11.7666263 27.6798928,11.4728034 C25.2554109,11.0485535 23.4802797,7.96286887 18.0849285,5.39889214 C14.5185221,3.70406621 8.46736248,1.85019184 6.17490326,1.23573592 C0.736859922,-0.221785394 0.583311793,-1.69452319 0.0710063511,6.16478826 C-0.212411926,10.5148898 0.61703498,18.3296387 1.32342813,21.5638651 C2.40974527,26.5360308 3.88674912,29.7191733 5.32464843,32.9860064 C6.76254774,36.2528396 7.46786461,36.3394286 7.18839267,37.5042138 C6.86084724,38.8722478 4.64659711,41.614837 3.56817263,43.7929673 C2.48974815,45.9707353 3.21300994,47.0813387 3.5681725,49.3395967 L71.5593179,49.3395967 C72.7892684,49.3395967 79.8306098,48.1030701 79.3147576,47.0813387 C75.9990237,40.5139742 77.2131562,42.2419733 75.7752568,40.0642053 C74.3373575,37.8864373 73.111125,36.6238318 73.4415405,35.3836888 C74.0934026,32.9389078 76.8536813,28.2670864 78.4709593,23.7296773 C80.088596,19.1922681 80.8222547,12.4227464 80.8997463,8.4747947 C81.0443255,1.08973018 82.0244505,2.00344352 78.2205467,2.25958759 C73.8759956,2.55196137 69.9443743,3.07004625 67.649045,3.86818681 C63.2320249,5.40360201 61.5110661,5.96661173 58.8153637,7.96286887 C57.9808942,8.58094776 55.1158583,11.4322261 53.5294334,10.8148718 C52.0093787,10.2228783 50.2711995,8.10923691 48.243862,6.13507989 C47.5195309,5.4296874 54.1812955,4.52611838 53.4569645,3.57581303 C52.9593681,2.92222902 47.6619576,2.49254464 45.7096003,2.55196137 C40.8294246,2.70014089 39.1927737,4.01455484 35.5176638,6.12493557 Z" fill="#04070A"></path>
                            <path d="M5.50115703,3.18308295 C7.43306515,5.57750462 8.83795879,5.22281574 9.80409223,8.41537797 C10.1388128,9.52219568 4.81700683,5.59996705 5.06203808,6.73069636 C5.67658935,9.56856971 6.027454,11.2702793 6.20252757,12.753886 C6.20288633,12.7556975 6.20037503,12.7567844 6.19894,12.7553352 C4.09590464,10.7213992 2.51521992,7.08139997 2.51521992,8.59290356 C2.51521992,10.9873252 2.51521992,14.6233391 4.27169572,20.2103231 C5.65865149,24.6227397 7.8721841,29.3449204 8.66252646,30.408987 C9.45286882,31.4730537 10.0003325,33.3312756 11.7360004,30.9412015 C13.6679085,28.2804914 14.2677507,26.6124755 17.005069,23.4916481 C19.7273195,20.3878486 21.3958997,18.6140419 23.8548224,16.3971459 C24.1167152,16.1609281 25.3745183,14.7860106 23.2399123,12.9382952 C20.7809897,10.8097996 20.1664384,10.1004219 16.6538456,7.70600021 C13.7827108,5.74887116 11.9993282,4.77936407 9.27707774,3.53777183 C7.93532539,2.92621429 5.05522169,2.63094214 5.50115703,3.18308295" id="left-ear" fill="#FFFFFF"></path>
                            <path d="M58.1032304,15.3327169 C59.2505363,16.9760967 61.3331225,18.7169343 63.2844035,21.0972264 C66.1078236,24.5408605 69.0761816,28.8811801 69.427405,29.4133945 C69.7789871,29.9452467 70.9323919,31.9610679 72.1539605,29.5220837 C73.5746395,26.6852972 75.1818723,23.4235362 76.2814634,20.6537747 C77.3458964,17.972776 78.2801004,14.2599551 78.5645949,11.9629914 C78.7393098,10.5522064 78.6668408,7.62919322 77.7742526,9.745733 C76.7751135,12.1144316 75.6712172,13.4824655 75.1818723,13.8578053 C74.3814847,14.4711744 74.2523321,13.9023679 75.0046461,11.5778695 C75.3709374,10.4471402 76.126839,8.27661818 75.5790166,8.14945189 C74.0119647,7.78643017 74.0119647,8.03931356 72.9242125,8.89614625 C70.8968749,10.4935143 69.9443743,9.83956796 72.4467065,7.1542217 C73.4483569,6.07964843 73.8096255,5.81191086 74.7832929,5.18586144 C75.3174825,4.84276606 77.1292069,3.12982527 73.7210125,4.06853711 C70.6934595,4.90218279 67.4355844,6.39303544 64.6896559,8.06068909 C62.4915498,9.39575398 58.2790215,12.5836064 57.9277981,13.2929841 C57.5762159,14.0027242 57.811202,14.914626 58.1032304,15.3327169" id="right-ear" fill="#FFFFFF"></path>
                            <path d="M34.1493634,24.4510109 C32.4771956,24.4510109 30.8742679,27.5109723 30.8742679,31.5792067 C30.8742679,35.6478034 31.7205764,38.9276792 34.0087306,38.912825 C36.4629893,38.8972463 37.2953063,35.8213437 37.2953063,31.7531093 C37.2953063,27.684875 35.8215313,24.4510109 34.1493634,24.4510109 Z M45.3583769,24.4510109 C43.6862091,24.4510109 42.0832814,27.5109723 42.0832814,31.5792067 C42.0832814,35.6478034 42.9295899,38.9276792 45.217744,38.912825 C47.6720028,38.8972463 48.5043198,35.8213437 48.5043198,31.7531093 C48.5043198,27.684875 47.0309035,24.4510109 45.3583769,24.4510109 Z" id="eyes" fill="#FFFFFF"></path>
                            <path d="M21.8549546,49.7281186 C23.2569099,49.7281186 56.6531178,49.7281186 57.7695457,49.7281186 C57.7695503,45.5278565 50.8570502,40.6888055 39.9831161,40.7656125 C28.5495205,40.8464048 21.8676463,44.6953492 21.8549546,49.7281186 Z M41.108179,47.8347539 C39.4291948,49.1267055 39.0542934,48.3003057 38.2818889,47.4717322 C37.4596172,46.5895387 37.3570126,46.5895387 35.918037,44.9287687 C34.7266039,43.5538512 36.0723026,43.1643818 37.870753,43.2161902 L43.1121974,43.2161902 C45.0311902,43.2161902 44.613238,44.4972729 44.2430004,44.9287687 C43.5749943,45.7073452 42.7871632,46.5431647 41.108179,47.8347539 Z" id="face" fill="#FFFFFF"></path>
                        </g>
                        <path d="M1.42538734,48.9674364 L299.935849,48.9674364 L299.935849,50.0458055 L1.42538734,50.0458055 L1.42538734,48.9674364 Z" id="Fill-7" fill="#AEAEAE" transform="translate(150.680618, 49.506621) scale(1, -1) translate(-150.680618, -49.506621) "></path>
                        <g id="feet-front" transform="translate(0.002630, 40.245348)">
                            <g id="feet-left" transform="translate(0.000000, 0.818891)">
                                <path d="M30.7185949,9.76233912 C30.7185949,16.900317 24.7750625,22.9017688 12.0047372,22.739822 C3.58326803,22.632582 0.205926697,17.3506523 0.198034036,11.3031888 C0.187630074,3.27323538 6.71521937,0.45782445 15.1370473,0.515791989 C26.8633888,0.596946544 30.7185949,3.51669904 30.7185949,9.76233912" id="Fill-12" fill="#04070A"></path>
                                <path d="M29.1924412,9.84313137 C29.1508254,12.865414 27.6666464,14.9533323 24.6143392,18.0353939 C23.650717,19.0085239 20.9776163,12.6994819 21.000218,13.655584 C21.0805797,17.0619015 21.4016675,18.0353939 21.8034756,19.1708331 C22.0345154,19.8240548 17.5794671,20.4780011 15.0566856,20.6308905 C14.5110158,20.6638595 14.1730664,17.7107757 13.6912553,15.1964336 C13.5671253,14.5490087 13.048721,18.8465771 12.8883564,20.4685813 C12.8119411,21.2395496 9.91641086,20.5497359 7.82808455,20.2251177 C5.64899264,19.8867322 7.02518569,16.169926 7.34627348,12.3578357 C7.40403341,11.6727318 5.82047863,15.7641532 5.09758265,18.1165484 C4.83246099,18.9788156 1.81244194,15.1156414 1.88491092,11.4654979 C2.04527544,3.35438993 7.74090652,1.78274502 15.2977705,1.65123117 C24.6143392,1.48892206 29.2677803,4.377517 29.1924412,9.84313137" id="Fill-13" fill="#FFFFFF"></path>
                            </g>
                            <g id="feet-right" transform="translate(73.020911, 0.000000)">
                                <path d="M0.575998663,9.99756921 C0.575998663,17.1355471 6.5191723,23.1369989 19.2894976,22.9750521 C27.7113255,22.8678121 31.0883081,17.5858824 31.0962007,11.5384189 C31.1066047,3.50846547 24.5793741,0.693054541 16.1571875,0.75102208 C4.43120474,0.832176635 0.575998663,3.75192913 0.575998663,9.99756921" id="Fill-14" fill="#04070A"></path>
                                <path d="M2.10179351,10.0783615 C2.14340936,13.100644 3.62794712,15.1885624 6.67989557,18.270624 C7.64387647,19.243754 10.3166184,12.934712 10.2943755,13.8908141 C10.2140139,17.2971316 9.8925673,18.270624 9.49111787,19.4060631 C9.26007816,20.0592849 13.7151265,20.7132312 16.2375491,20.8661205 C16.7835778,20.8990896 17.1211684,17.9460057 17.6029795,15.4316637 C17.7271095,14.7842388 18.2455138,19.0818072 18.4062371,20.7038114 C18.4826524,21.4747797 21.3778239,20.784966 23.4661502,20.4607101 C25.6452421,20.1219623 24.2694078,16.4051561 23.9479613,12.5930658 C23.8902014,11.9079619 25.4741149,15.9993833 26.1970109,18.3517785 C26.4617738,19.2140457 29.4817928,15.3508715 29.4096826,11.700728 C29.2489593,3.58962002 23.5533282,2.01797511 15.996823,1.88646126 C6.67989557,1.72415215 2.02681323,4.61274709 2.10179351,10.0783615" id="Fill-15" fill="#FFFFFF"></path>
                            </g>
                        </g>
                    </g>
                </g>
            </g>
        </g>
    </g>
</svg>