<?xml version="1.0" encoding="utf-8"?>
<!-- Generator: Adobe Illustrator 18.0.0, SVG Export Plug-In . SVG Version: 6.00 Build 0)  -->
<!DOCTYPE svg PUBLIC "-//W3C//DTD SVG 1.1//EN" "http://www.w3.org/Graphics/SVG/1.1/DTD/svg11.dtd">
<svg version="1.1" id="Ebene_1" xmlns="http://www.w3.org/2000/svg" xmlns:xlink="http://www.w3.org/1999/xlink" x="0px" y="0px"
	 viewBox="0 0 62.965 65.4" enable-background="new 0 0 62.965 65.4" xml:space="preserve">
<g id="_x31_kbMlo_1_" display="none">
	
		<image display="inline" overflow="visible" width="400" height="400" id="_x31_kbMlo" xlink:href="34184D9B1B3647F8.jpg"  transform="matrix(1 0 0 1 -417.5691 -70.7839)">
	</image>
</g>
<text transform="matrix(1 0 0 1 67.9698 51.8345)" font-family="'Montserrat-Bold'" font-size="70.4952">kittn</text>
<g>
	<path d="M52.511,0c0,0-12.975,7.979-15.238,12.229c-0.287,0.539-1.093,0.521-1.694,0.414c-1.28-0.228-2.6-0.35-3.933-0.35
		c-1.572,0-3.141,0.177-4.663,0.492c-0.534,0.111-1.283,0.145-1.513-0.349C23.265,7.693,11.636,1.359,11.636,1.359
		c-1.301-1.185-1.039-0.687-0.773,0.469c0,0,2.296,12.101,3.165,22.219C14.583,30.517,22.85,35.8,31.647,35.8
		s16.267-5.303,17.016-11.754C49.929,13.14,52.511,0,52.511,0z M17.56,21.596c0-1.663,2.751-3.077,5.895-3.337
		c-0.451,1.108-0.819,2.368-0.819,3.238c-0.002,2.356,0.494,4.245,1.032,5.392C20.369,26.445,17.56,24.105,17.56,21.596z
		 M25.517,26.933c0.585-1.265,1.2-3.319,1.198-4.961c-0.001-0.945-0.354-2.298-0.767-3.48c2.632,0.927,5.028,3.973,4.698,5.144
		C30.142,25.42,28.72,26.751,25.517,26.933z M32.12,29.44c0.001,0.03,0.125,0.25,0.12,0.436c-0.017,0.626-0.235,0.767-0.542,0.767
		c-0.307,0-0.568-0.141-0.568-0.767c0-0.023,0.068-0.398,0.068-0.421c-0.353-0.095-0.594-0.234-0.603-0.688
		c-0.007-0.313,1.135-0.094,1.135-0.094s1.087-0.209,1.078,0.094C32.792,29.331,32.428,29.34,32.12,29.44z M32.56,23.596
		c0-1.767,2.048-5.094,6.052-5.711c-0.52,1.188-1.184,2.887-1.185,3.857c-0.002,2.404,0.722,4.079,1.273,5.217
		C35.133,26.85,32.56,25.128,32.56,23.596z M40.576,26.804c0.567-1.273,1.275-3.275,1.273-4.861
		c-0.001-1.102-0.614-2.727-1.109-4.019c2.647,0.541,5.202,2.716,5.18,4.119C45.894,23.761,43.604,26.166,40.576,26.804z"/>
	<path d="M37.413,53.18c-1.529-4.307-3.145-6.587-4-8.915c-1.555-4.233-0.76-9.406-1.507-9.318c-1.021,0.12-0.156,5.613-1.819,9.176
		c-1.626,3.485-2.993,4.703-4.726,9.057c-1.411,3.545,0.519,6.909,6.026,6.909C37.414,60.089,38.69,56.776,37.413,53.18z"/>
	<path d="M27.946,60.668c-1.432,0-2.531,0.566-2.531,1.712c0,0.117-0.016,0.266-0.021,0.678c0.007,0.424-0.067,0.628-0.067,1.07
		c0,0.716-0.084,1.268,0.448,1.273c0.501,0.004,0.528-0.285,0.495-1c-0.011-0.239,0.083-0.395,0.167-0.474
		c0.201,0.044,0.428,0.07,0.667,0.086c0.108,0.024,0.218,0.133,0.218,0.57c0,0.716,0.077,0.817,0.453,0.817s0.328-0.117,0.344-0.833
		c0.016-0.703,0.33-0.513,0.329-0.54c0.234-0.01,0.453-0.031,0.661-0.061c0.135,0.023,0.202,0.232,0.189,0.533
		c-0.032,0.715,0.101,0.901,0.477,0.901s0.466-0.234,0.466-0.95c0-0.261,0.018-0.635,0.112-1.054
		c0.099-0.372,0.109-0.754,0.109-1.031C30.462,61.219,29.378,60.668,27.946,60.668z"/>
	<path d="M34.958,60.668c1.421,0,2.512,0.566,2.512,1.712c0,0.117,0.016,0.266,0.021,0.678c-0.007,0.424,0.067,0.628,0.067,1.07
		c0,0.716,0.083,1.268-0.444,1.273c-0.497,0.004-0.524-0.285-0.491-1c0.011-0.239-0.082-0.395-0.165-0.474
		c-0.199,0.044-0.424,0.07-0.662,0.086c-0.107,0.024-0.216,0.133-0.216,0.57c0,0.716-0.077,0.817-0.45,0.817
		s-0.325-0.117-0.341-0.833c-0.016-0.703-0.327-0.513-0.326-0.54c-0.232-0.01-0.45-0.031-0.656-0.061
		c-0.134,0.023-0.201,0.232-0.188,0.533c0.031,0.715-0.1,0.901-0.473,0.901c-0.373,0-0.462-0.234-0.462-0.95
		c0-0.261-0.018-0.635-0.111-1.054c-0.099-0.372-0.109-0.754-0.109-1.031C32.462,61.219,33.537,60.668,34.958,60.668z"/>
	<path fill="none" stroke="#000000" stroke-width="0.8366" stroke-linecap="round" stroke-miterlimit="10" d="M26.761,29.607
		c-0.128,0.109-2.907-1.449-12.352,1.999c-3.237,1.182-5.371,2.498-3.997,4.622"/>
	<path fill="none" stroke="#000000" stroke-width="0.8366" stroke-linecap="round" stroke-miterlimit="10" d="M23.839,28.233
		c-1.56-0.962-4.047,0.434-10.368,1.586c-8.43,1.537-9.611,4.121-8.12,6.246"/>
	<path fill="none" stroke="#000000" stroke-width="0.8366" stroke-linecap="round" stroke-miterlimit="10" d="M20.492,26.56
		c-1.452-0.895-4.689,0.683-6.206,0.99c-3.898,0.79-13.68,0.177-13.867,6.179"/>
	<path fill="none" stroke="#000000" stroke-width="0.7982" stroke-linecap="round" stroke-miterlimit="10" d="M37.761,29.463
		c0.121,0.104,2.737-1.383,11.631,1.907c3.048,1.128,5.058,2.384,3.764,4.41"/>
	<path fill="none" stroke="#000000" stroke-width="0.7982" stroke-linecap="round" stroke-miterlimit="10" d="M40.513,28.152
		c1.469-0.917,3.811,0.414,9.763,1.513c7.938,1.466,9.05,3.932,7.646,5.959"/>
	<path fill="none" stroke="#000000" stroke-width="0.7982" stroke-linecap="round" stroke-miterlimit="10" d="M43.664,26.555
		c1.469-0.917,3.72,1.214,9.763,1.513c4.081,0.202,9.022,1.513,9.139,5.327"/>
	<path fill="none" stroke="#000000" stroke-width="0.789" stroke-linecap="round" stroke-miterlimit="10" d="M31.258,55.097
		c0,0-1.059-0.008-2.824-0.021c-0.296-0.002-0.627-0.005-0.974-0.008c-0.385,0.072-0.763,0.163-1.137,0.267
		c-0.399,0.203-0.804,0.406-1.221,0.608c-5.873,2.843-12.322,9.014-19.186,4.758c-3.693-2.29-4.969-8.331-2.12-11.789
		c2.286-2.775,7.863-2.986,9.604,0.495c2.553,3.83-0.638,8.936-5.106,8.298C6.187,57.404,5.151,54.913,5.451,53
		c0.331-2.113,3.641-3.934,4.881-1.394"/>
</g>
<text transform="matrix(1 0 0 1 72.4201 66.9174)" fill="#666666" font-family="'Montserrat-Regular'" font-size="10">build frontends with more meow</text>
</svg>
