<?xml version="1.0" encoding="UTF-8" standalone="no"?>
<svg width="824px" height="483px" viewBox="0 0 824 483" version="1.1" xmlns="http://www.w3.org/2000/svg" xmlns:xlink="http://www.w3.org/1999/xlink" xmlns:sketch="http://www.bohemiancoding.com/sketch/ns">
    <!-- Generator: Sketch 3.3 (11970) - http://www.bohemiancoding.com/sketch -->
    <title>Artboard</title>
    <desc>Created with Sketch.</desc>
    <defs></defs>
    <g id="Page-1" stroke="none" stroke-width="1" fill="none" fill-rule="evenodd" sketch:type="MSPage">
        <g id="Artboard" sketch:type="MSArtboardGroup">
            <g id="cat5-copy" sketch:type="MSLayerGroup">
                <path d="M702.099893,409.246482 C707.428065,397.678628 701.543099,395.632295 719.303229,399.191019 C737.063358,402.751077 747.790301,405.061711 765.483828,403.365111 C818.317982,398.302005 819.768577,395.687024 813.6545,381.155793 C804.656549,359.768745 798.570445,348.804246 788.125895,332.894109 C765.924734,299.076892 737.610828,284.310725 737.998452,279.321037 C741.159391,238.535877 743.325293,233.514152 737.998452,225.618485 C732.67028,217.724152 721.523744,212.422108 674.457337,213.64617 C674.457337,213.64617 647.511438,219.607633 640.712691,215.871373 C620.066024,204.525106 617.179487,204.302185 628.724304,198.073751 C640.26912,191.843983 659.361293,181.83257 666.465078,168.261099 C672.371357,156.978904 678.009895,141.119492 667.353551,122.876028 C656.697207,104.633899 645.374841,86.3904357 620.209885,81.9667262 C607.36233,79.7081515 584.561749,88.3473332 576.108605,99.738986 C566.451293,112.753823 563.121185,120.762953 566.118282,140.229144 C568.024435,152.612594 581.103766,162.143459 590.095056,165.591389 C596.424925,168.01949 600.836651,167.65641 599.719067,169.968379 C598.572178,172.337746 594.783848,173.68862 588.985464,177.160578 C582.078821,181.294624 577.218196,185.614214 561.23368,180.274794 C545.249164,174.935374 516.207962,167.440163 483.907251,160.824622 C459.388335,155.802897 442.681852,144.233709 431.138367,135.780072 C427.588472,133.181109 403.165464,113.532043 397.837292,111.308175 C392.509119,109.082971 385.871549,101.765296 368.333871,101.988217 C357.565635,102.124372 347.885678,105.301327 336.340862,109.97332 C333.170599,111.256115 335.476366,103.512621 333.899227,85.7230082 C331.678711,60.6944765 331.849213,33.0936791 330.569119,25.2100253 C329.014625,15.6431193 313.181962,7.9823863 296.239707,15.5616931 C274.17841,25.4316112 267.590125,50.1331035 266.908119,63.5310434 C265.914415,83.0439542 268.980778,95.2565428 273.432466,109.416685 C279.461293,128.594547 283.725162,135.279501 293.715485,145.958341 C297.603719,150.11508 301.930194,151.798332 301.041722,156.693245 C300.153249,161.586824 291.76937,188.445442 289.941807,191.399476 C287.641369,195.113043 290.162926,198.295337 275.066883,197.850831 C263.083824,197.497094 183.893867,193.846265 138.865484,203.190251 C120.82829,206.933184 75.4828816,216.983308 52.3559508,230.944556 C37.8979559,239.673173 12.8981725,259.021897 5.79305508,279.489229 C-1.31073033,299.956561 1.40663743,327.443896 3.99612905,335.340898 C11.5021914,358.239001 25.7537197,377.147223 57.2778497,376.944325 C91.6885169,376.721404 108.561506,364.040281 118.108258,346.687166 C126.064551,332.222677 126.064551,332.222677 128.760606,324.73681 C129.537187,322.582354 162.688562,322.552831 174.254408,321.545169 C196.783382,319.582356 203.802581,315.095152 208.687183,317.764862 C213.570453,320.434572 227.556905,336.898674 244.429893,337.343181 C253.751531,337.588794 260.674158,341.353085 314.420762,328.762733 C335.886635,323.734334 354.933518,323.271139 367.810378,322.826632 C380.687238,322.382126 389.24295,319.552233 389.470729,321.545172 C389.97957,325.990239 388.956561,330.668906 384.960432,330.224399 C380.964303,329.778557 377.417072,327.718876 369.198367,327.108847 C357.20998,326.219834 348.106798,327.331768 339.227399,334.006043 C334.448028,337.598138 321.23949,352.5939 325.906969,370.714557 C331.235141,391.404809 351.659356,401.860729 365.868259,404.530439 C380.07583,407.200149 397.987812,406.760982 410.86334,401.421562 C423.7402,396.082141 428.528895,388.413399 432.968594,371.060284 C437.409625,353.707169 438.889525,350.650351 442.681852,345.796818 C446.187789,341.31037 458.196157,336.43281 461.2825,332.536368 C468.046615,323.994631 464.216991,344.684884 469.322712,352.026586 C478.589735,365.349774 494.631529,373.384267 501.736647,378.27918 C508.840432,383.172759 515.944218,386.509896 515.057077,394.519026 C514.168604,402.528156 508.982961,410.708148 496.186024,431.005954 C488.973011,442.445661 482.684436,456.169306 481.311099,469.493829 C479.979056,482.41923 480.836892,481.189828 494.600892,482.080177 C508.366225,482.96919 542.585078,483.286886 562.565723,475.277755 C582.546368,467.268625 597.643744,458.592068 604.303959,446.801293 C609.193889,438.142089 609.682749,435.194729 617.556455,438.822865 C624.728175,442.129301 638.048605,445.243517 644.70882,445.910945 C647.672616,446.208617 644.788742,451.074164 642.933207,452.58522 C639.380648,455.477851 634.052476,457.035627 631.38839,458.370482 C628.724304,459.705337 638.937077,459.259495 638.937077,459.259495 C687.556648,449.248082 696.771721,420.81567 702.099893,409.246482 Z" id="Fill-1" fill-opacity="0.1" fill="#000000" sketch:type="MSShapeGroup"></path>
                <path d="M709.855187,397.607928 C715.183359,386.040074 709.298393,383.993741 727.058523,387.552465 C744.818652,391.112523 755.545595,393.423157 773.239122,391.726556 C826.073276,386.663451 827.523871,384.04847 821.409794,369.517238 C812.411843,348.130191 806.325739,337.165692 795.881189,321.255555 C773.680028,287.438338 745.366122,272.672171 745.753747,267.682483 C748.914685,226.897323 751.080587,221.875598 745.753747,213.979931 C740.425575,206.085598 729.279039,200.783554 682.212631,202.007616 C682.212631,202.007616 655.266732,207.969078 648.467985,204.232819 C627.821318,192.886551 624.934781,192.663631 636.479598,186.435197 C648.024415,180.205429 667.116587,170.194016 674.220373,156.622545 C680.126651,145.34035 685.765189,129.480938 675.108845,111.237474 C664.452501,92.9953452 653.130135,74.7518815 627.965179,70.328172 C615.117624,68.0695973 592.317044,76.708779 583.863899,88.1004318 C574.206587,101.115268 570.876479,109.124398 573.873576,128.590589 C575.77973,140.974039 588.85906,150.504904 597.85035,153.952835 C604.180219,156.380936 608.591945,156.017856 607.474361,158.329824 C606.327472,160.699192 602.539142,162.050065 596.740758,165.522023 C589.834115,169.656069 584.97349,173.97566 568.988974,168.63624 C553.004458,163.29682 523.963256,155.801609 491.662545,149.186068 C467.143629,144.164343 450.437146,132.595154 438.893661,124.141518 C435.343766,121.542555 410.920758,101.893489 405.592586,99.6696203 C400.264414,97.444417 393.626843,90.1267417 376.089165,90.3496625 C365.320929,90.4858177 355.640973,93.6627727 344.096156,98.3347653 C340.925893,99.617561 343.23166,91.874067 341.654521,74.084454 C339.434005,49.0559223 339.604507,21.4551249 338.324413,13.5714711 C336.769919,4.00456508 320.937256,-3.65616792 303.995001,3.92313893 C281.933704,13.793057 275.34542,38.4945493 274.663413,51.8924892 C273.669709,71.4054 276.736072,83.6179886 281.18776,97.7781307 C287.216587,116.955993 291.480457,123.640947 301.470779,134.319787 C305.359013,138.476526 309.685488,140.159778 308.797016,145.054691 C307.908543,149.94827 299.524664,176.806888 297.697101,179.760922 C295.396663,183.474489 297.91822,186.656783 282.822177,186.212276 C270.839118,185.85854 191.649161,182.207711 146.620779,191.551696 C128.583584,195.29463 83.2381757,205.344753 60.1112449,219.306002 C45.65325,228.034619 20.6534666,247.383343 13.5483492,267.850675 C6.44456379,288.318007 9.16193154,315.805342 11.7514232,323.702344 C19.2574856,346.600447 33.5090138,365.508669 65.0331438,365.305771 C99.4438111,365.08285 116.3168,352.401727 125.863552,335.048612 C133.819845,320.584123 133.819845,320.584123 136.5159,313.098256 C137.292481,310.9438 170.443857,310.914276 182.009702,309.906615 C204.538676,307.943802 211.557876,303.456598 216.442477,306.126308 C221.325747,308.796018 235.312199,325.26012 252.185188,325.704627 C261.506825,325.95024 268.429452,329.714531 322.176056,317.124179 C343.641929,312.09578 362.688812,311.632585 375.565672,311.188078 C388.442532,310.743572 396.998244,307.913679 397.226023,309.906617 C397.734864,314.351685 396.711855,319.030352 392.715726,318.585845 C388.719597,318.140003 385.172366,316.080322 376.953661,315.470293 C364.965274,314.58128 355.862092,315.693214 346.982693,322.367489 C342.203323,325.959584 328.994784,340.955345 333.662263,359.076002 C338.990435,379.766255 359.41465,390.222175 373.623553,392.891885 C387.831124,395.561595 405.743107,395.122427 418.618634,389.783007 C431.495494,384.443587 436.284189,376.774845 440.723888,359.42173 C445.16492,342.068614 446.644819,339.011796 450.437146,334.158264 C453.943083,329.671816 465.951451,324.794256 469.037795,320.897814 C475.801909,312.356076 471.972285,333.046329 477.078006,340.388032 C486.345029,353.71122 502.386823,361.745712 509.491941,366.640626 C516.595726,371.534204 523.699512,374.871342 522.812371,382.880472 C521.923898,390.889602 516.738255,399.069594 503.941318,419.367399 C496.728305,430.807107 490.43973,444.530751 489.066393,457.855274 C487.73435,470.780676 488.592186,469.551274 502.356186,470.441622 C516.121519,471.330636 550.340372,471.648331 570.321017,463.639201 C590.301663,455.630071 605.399038,446.953513 612.059253,435.162739 C616.949183,426.503534 617.438043,423.556174 625.311749,427.18431 C632.483469,430.490746 645.803899,433.604963 652.464114,434.272391 C655.42791,434.570063 652.544037,439.43561 650.688501,440.946666 C647.135942,443.839297 641.80777,445.397072 639.143684,446.731927 C636.479598,448.066782 646.692372,447.620941 646.692372,447.620941 C695.311942,437.609528 704.527015,409.177116 709.855187,397.607928 Z" id="Fill-1" fill="#04070A" sketch:type="MSShapeGroup"></path>
                <path d="M741.801575,290.517848 C739.401233,299.277167 737.86006,310.611421 733.574877,327.785666 C731.662064,335.451738 727.145106,351.392577 724.321174,359.55655 C723.446022,362.084766 719.179488,369.689435 727.566031,372.626116 C740.052602,376.997766 748.1421,381.368081 773.849198,383.328983 C791.155101,384.649155 805.082943,381.851299 802.775844,381.099775 C792.014269,377.589107 783.569116,372.44858 780.524065,370.395573 C778.957583,369.339703 800.996235,367.297374 800.069133,366.59791 C792.078207,360.565701 781.560395,347.879238 784.084616,348.989838 C786.563548,350.080414 798.356125,352.859582 805.000356,359.692705 C805.932786,360.651131 803.668313,349.252804 789.424777,331.150835 C779.470419,318.500414 767.507341,305.801938 755.15797,296.81169 C749.351595,292.584204 742.741997,287.081931 741.801575,290.517848" id="Fill-2" fill="#FFFFFF" sketch:type="MSShapeGroup"></path>
                <path d="M547.773525,392.248485 C557.031224,397.320934 583.201873,411.646598 590.496141,414.993079 C600.683606,419.666407 603.703347,420.100235 600.972659,425.677259 C597.089754,433.602293 592.089264,441.312416 583.791968,446.456947 C569.311329,455.433847 552.429015,461.570176 517.512172,463.60316 C514.401851,463.7847 530.014728,453.323442 531.349435,451.094234 C532.684142,448.863691 513.173708,451.347856 509.927519,452.810857 C506.500172,454.356619 519.703383,438.202204 517.06727,438.629357 C504.785833,440.618291 503.39518,447.40069 499.710749,449.778067 C492.618952,454.356619 503.463114,432.169994 511.727109,421.236196 C517.923773,413.036182 520.28815,410.596067 533.625896,394.521743 C539.601441,387.3202 537.005289,386.348425 547.773525,392.248485" id="Fill-3" fill="#FFFFFF" sketch:type="MSShapeGroup"></path>
                <path d="M679.763004,260.463587 C672.222308,249.472391 654.741908,251.018153 639.005151,254.890567 C629.766101,257.163826 606.50863,266.411701 594.946497,274.067095 C566.482069,292.913913 557.292305,309.062989 560.655713,321.430421 C564.76773,336.558333 594.588177,336.558333 615.863568,330.259152 C644.088227,321.901625 654.410229,317.680813 672.906978,298.932774 C682.652205,289.056182 689.593481,274.793256 679.763004,260.463587 L679.763004,260.463587 Z M631.777486,316.965331 C623.303028,320.724283 615.537217,324.676788 614.63942,322.460929 C612.410913,316.965331 618.83136,298.717863 622.258707,297.1721 C625.686053,295.626338 645.839864,300.756186 649.600221,304.943626 C652.685233,308.378208 642.573695,312.177206 631.777486,316.965331 L631.777486,316.965331 Z" id="Fill-4" fill="#FFFFFF" sketch:type="MSShapeGroup"></path>
                <path d="M621.494114,345.064029 C615.073666,348.32775 615.129612,361.402655 623.208453,373.468409 C633.702288,389.139607 638.594882,393.045393 643.773865,390.126065 C649.257886,387.035876 647.543547,374.326721 642.059526,362.477213 C639.123703,356.133982 627.308482,342.109995 621.494114,345.064029" id="Fill-5" fill="#FFFFFF" sketch:type="MSShapeGroup"></path>
                <path d="M680.339778,344.580812 C677.403955,338.238915 665.587402,324.214928 659.774366,327.168963 C653.353919,330.432683 653.408532,343.507588 661.487373,355.573343 C671.981208,371.244541 676.873802,375.150327 682.052785,372.230999 C687.536807,369.140809 685.823799,356.431655 680.339778,344.580812" id="Fill-6" fill="#FFFFFF" sketch:type="MSShapeGroup"></path>
                <path d="M593.995418,143.071097 C602.211459,148.613415 620.244657,153.914124 635.391319,154.629606 C652.140428,155.421175 667.308401,153.362829 672.456748,139.745973 C676.563436,128.880253 669.81131,117.305725 662.56766,106.337221 C655.458547,95.5702805 649.389759,88.8426112 636.31176,81.6851185 C624.228798,75.0709119 617.379433,78.3119399 617.379433,78.3119399 C617.379433,78.3119399 624.664376,91.7058752 622.120174,90.345658 C619.749137,89.0788805 614.650077,83.8662717 608.691848,79.7495788 C607.0561,78.6176217 597.016491,87.5224396 591.308687,90.8208663 C590.024598,91.5630457 608.6732,102.15779 607.109381,102.695737 C601.580071,104.595235 585.936558,98.8954044 585.936558,98.8954044 C582.935465,105.899389 580.730933,114.570607 581.197149,117.57937 C581.408943,118.942257 596.997843,117.420522 605.937183,122.821346 C607.839341,123.970656 581.189156,124.704826 581.197149,125.971604 C581.226453,130.60889 589.458479,140.010274 593.995418,143.071097" id="Fill-7" fill="#FFFFFF" sketch:type="MSShapeGroup"></path>
                <path d="M426.127361,342.01789 C432.423928,348.951127 433.080625,370.51304 426.281878,377.172632 C417.846049,385.43405 402.183888,385.790456 390.583125,386.309715 C370.976784,387.186714 357.357976,380.269496 356.739908,379.03075 C356.12184,377.792005 366.628995,369.774865 365.083825,369.738824 C358.439595,369.583981 352.931597,376.551924 351.794032,374.385455 C348.703693,368.500079 341.285545,360.911428 342.212647,359.982369 C343.139749,359.05331 357.512493,357.659721 360.602833,356.575819 C363.693173,355.491917 342.212647,354.562857 340.667477,353.478955 C339.122307,352.395053 339.363407,342.65862 342.985232,337.991967 C344.066851,336.598379 361.035747,338.408442 363.384139,338.14681 C364.774791,337.991967 353.95727,332.572456 347.931108,333.811201 C345.537426,334.302428 353.493719,322.658487 368.948082,322.659822 C376.058528,322.661157 385.887673,323.125687 392.593178,325.170685 C403.348093,328.450423 416.984218,331.951748 426.127361,342.01789 Z" id="Fill-8" fill="#FFFFFF" sketch:type="MSShapeGroup"></path>
                <path d="M15.370584,295.272602 C14.6845819,315.896112 22.0014942,336.518287 33.8913101,346.370852 C45.6505859,356.115294 57.1927386,358.184319 72.3060987,357.370058 C93.5708334,356.223417 105.679104,350.131139 116.207572,336.518287 C127.728412,321.623975 131.451473,314.810875 123.282053,309.478129 C114.134913,303.508657 110.018901,299.311873 106.375763,290.460449 C98.8297392,272.13022 104.546868,257.693763 101.802859,259.298259 C99.0588506,260.90142 88.3119276,285.648297 83.0530217,288.169838 C80.8218497,289.239057 86.9399233,264.338671 90.369934,253.111206 C91.2251056,250.312015 60.1871713,250.950075 59.5011692,252.881611 C54.1636728,267.916083 52.1842569,278.046298 47.1531304,287.252793 C45.9862607,289.389896 48.0549235,254.431377 46.0102375,254.943962 C21.315492,261.131015 16.0565862,274.650426 15.370584,295.272602" id="Fill-9" fill="#FFFFFF" sketch:type="MSShapeGroup"></path>
                <path d="M213.843661,255.173557 C213.786384,261.845162 208.334331,268.599529 208.127865,277.102555 C207.898753,286.497265 213.334821,298.105164 210.363033,299.480065 C207.389913,300.854965 184.224072,304.374976 168.570183,304.374978 C142.528911,304.374981 130.613618,305.389468 126.726716,302.3767 C125.447955,301.384903 140.361508,292.52814 138.845643,292.29454 C132.899403,291.377495 123.296705,298.709853 122.15248,297.792808 C121.009587,296.877097 107.061765,281.52493 110.262664,279.920434 C113.463564,278.315938 122.838483,276.483182 124.439598,274.880021 C126.040714,273.275526 109.996256,275.566137 109.787125,274.420831 C109.576662,273.275526 108.605603,258.765652 111.405557,258.610808 C113.741961,258.481327 126.072683,259.526519 127.673799,259.068664 C129.273582,258.610808 116.436684,253.569061 116.665795,252.423755 C116.893575,251.27845 123.753596,248.528648 138.159641,248.528648 C168.341072,248.528648 213.878295,251.27845 213.843661,255.173557 Z" id="Fill-10" fill="#FFFFFF" sketch:type="MSShapeGroup"></path>
                <path d="M170.930564,241.60876 C168.508909,239.603808 208.638037,232.598489 213.843661,232.431632 C219.050618,232.264775 235.368145,230.095635 229.04094,236.229294 C224.589252,240.54488 223.046747,248.528648 216.553037,247.448751 C211.849593,246.666526 174.760187,244.779041 170.930564,241.60876" id="Fill-11" fill="#FFFFFF" sketch:type="MSShapeGroup"></path>
                <path d="M332.107769,43.2159315 C332.145066,49.5591626 334.326952,74.6477628 335.658995,89.9358575 C335.833493,91.9368051 336.936424,97.444417 333.522398,101.115268 C328.747024,106.25179 320.758762,113.903179 318.787338,117.634099 C315.790242,123.307233 313.084862,137.447352 307.964489,131.650077 C298.973199,121.471807 290.64793,112.127822 285.819274,92.2718538 C282.567757,78.9032807 279.658575,65.5747532 280.324596,57.5656231 C280.990618,49.5564929 281.715249,40.4140708 286.31879,30.0342381 C290.98094,19.5222548 297.766368,20.9131737 299.805725,23.359963 C303.157146,27.3818812 310.773768,34.8637436 313.126156,35.2068013 C314.534125,35.412369 299.447406,17.2810332 301.137768,15.1839759 C302.319291,13.7183051 311.128091,8.00913016 313.958682,9.34398519 C316.789274,10.6788402 322.283951,19.5222548 323.449489,20.3565392 C324.615027,21.1908236 322.783467,11.1794109 323.449489,9.84455583 C324.11551,8.5097008 331.108736,12.0136952 331.608252,14.5165484 C332.107769,17.0194016 332.03717,31.0353794 332.107769,43.2159315" id="Fill-12" fill="#FFFFFF" sketch:type="MSShapeGroup"></path>
            </g>
        </g>
    </g>
</svg>